<svg width="868" height="106" viewBox="0 0 868 106" fill="none" xmlns="http://www.w3.org/2000/svg">
<path d="M12.845 76.42C10.3717 76.42 8.225 75.895 6.405 74.845C4.60833 73.795 3.20833 72.3483 2.205 70.505C1.225 68.6383 0.735 66.5033 0.735 64.1C0.735 62.3033 1.02667 60.6583 1.61 59.165C2.21667 57.6483 3.05667 56.3417 4.13 55.245C5.20333 54.125 6.475 53.2733 7.945 52.69C9.43833 52.0833 11.0717 51.78 12.845 51.78C15.645 51.78 17.9433 52.3867 19.74 53.6C21.5367 54.8133 22.9133 56.54 23.87 58.78L19.215 60.565C18.445 59.235 17.535 58.2667 16.485 57.66C15.4583 57.03 14.245 56.715 12.845 56.715C11.515 56.715 10.325 57.03 9.275 57.66C8.24833 58.2667 7.43167 59.1183 6.825 60.215C6.24167 61.3117 5.95 62.6067 5.95 64.1C5.95 65.57 6.24167 66.865 6.825 67.985C7.43167 69.0817 8.24833 69.9333 9.275 70.54C10.325 71.1467 11.515 71.45 12.845 71.45C14.245 71.45 15.4583 71.1467 16.485 70.54C17.535 69.9333 18.445 68.965 19.215 67.635L23.87 69.42C22.9133 71.66 21.5367 73.3867 19.74 74.6C17.9433 75.8133 15.645 76.42 12.845 76.42ZM25.1051 64.1C25.1051 62.3033 25.3968 60.6583 25.9801 59.165C26.5868 57.6483 27.4385 56.3417 28.5351 55.245C29.6318 54.125 30.9268 53.2617 32.4201 52.655C33.9135 52.0483 35.5701 51.745 37.3901 51.745C39.1635 51.745 40.7968 52.0483 42.2901 52.655C43.8068 53.2617 45.1135 54.125 46.2101 55.245C47.3068 56.3417 48.1468 57.6483 48.7301 59.165C49.3368 60.6583 49.6401 62.3033 49.6401 64.1C49.6401 65.8967 49.3368 67.5533 48.7301 69.07C48.1468 70.5633 47.3068 71.87 46.2101 72.99C45.1135 74.0867 43.8068 74.9383 42.2901 75.545C40.7968 76.1283 39.1635 76.42 37.3901 76.42C35.5701 76.42 33.9135 76.1283 32.4201 75.545C30.9268 74.9383 29.6318 74.0867 28.5351 72.99C27.4385 71.87 26.5868 70.5633 25.9801 69.07C25.3968 67.5533 25.1051 65.8967 25.1051 64.1ZM30.3201 64.1C30.3201 65.57 30.6235 66.8533 31.2301 67.95C31.8368 69.0467 32.6651 69.8983 33.7151 70.505C34.7885 71.1117 36.0135 71.415 37.3901 71.415C38.7435 71.415 39.9451 71.1117 40.9951 70.505C42.0685 69.8983 42.9085 69.0467 43.5151 67.95C44.1218 66.8533 44.4251 65.5583 44.4251 64.065C44.4251 62.595 44.1218 61.3117 43.5151 60.215C42.9085 59.1183 42.0685 58.2783 40.9951 57.695C39.9451 57.0883 38.7435 56.785 37.3901 56.785C36.0135 56.785 34.7885 57.0883 33.7151 57.695C32.6651 58.3017 31.8368 59.1533 31.2301 60.25C30.6235 61.3233 30.3201 62.6067 30.3201 64.1ZM51.2184 64.1C51.2184 62.3033 51.5101 60.6583 52.0934 59.165C52.7001 57.6483 53.5517 56.3417 54.6484 55.245C55.7451 54.125 57.0401 53.2617 58.5334 52.655C60.0267 52.0483 61.6834 51.745 63.5034 51.745C65.2767 51.745 66.9101 52.0483 68.4034 52.655C69.9201 53.2617 71.2267 54.125 72.3234 55.245C73.4201 56.3417 74.2601 57.6483 74.8434 59.165C75.4501 60.6583 75.7534 62.3033 75.7534 64.1C75.7534 65.8967 75.4501 67.5533 74.8434 69.07C74.2601 70.5633 73.4201 71.87 72.3234 72.99C71.2267 74.0867 69.9201 74.9383 68.4034 75.545C66.9101 76.1283 65.2767 76.42 63.5034 76.42C61.6834 76.42 60.0267 76.1283 58.5334 75.545C57.0401 74.9383 55.7451 74.0867 54.6484 72.99C53.5517 71.87 52.7001 70.5633 52.0934 69.07C51.5101 67.5533 51.2184 65.8967 51.2184 64.1ZM56.4334 64.1C56.4334 65.57 56.7367 66.8533 57.3434 67.95C57.9501 69.0467 58.7784 69.8983 59.8284 70.505C60.9017 71.1117 62.1267 71.415 63.5034 71.415C64.8567 71.415 66.0584 71.1117 67.1084 70.505C68.1817 69.8983 69.0217 69.0467 69.6284 67.95C70.2351 66.8533 70.5384 65.5583 70.5384 64.065C70.5384 62.595 70.2351 61.3117 69.6284 60.215C69.0217 59.1183 68.1817 58.2783 67.1084 57.695C66.0584 57.0883 64.8567 56.785 63.5034 56.785C62.1267 56.785 60.9017 57.0883 59.8284 57.695C58.7784 58.3017 57.9501 59.1533 57.3434 60.25C56.7367 61.3233 56.4334 62.6067 56.4334 64.1ZM78.56 76V52.165H83.67V76H78.56ZM91.685 76L81.85 64.52V63.715L92 52.165H98.335L87.17 64.87L87.31 63.33L98.335 76H91.685ZM104.896 76H99.7855V52.165H104.896V76ZM125.042 76L111.987 58.325L114.192 57.73V76H109.082V52.165H113.737L126.512 69.525L124.552 69.875V52.165H129.662V76H125.042ZM144.608 76.42C142.204 76.42 140.081 75.895 138.238 74.845C136.418 73.795 135.006 72.36 134.003 70.54C132.999 68.6967 132.498 66.6083 132.498 64.275C132.498 62.4317 132.789 60.7517 133.373 59.235C133.979 57.695 134.819 56.3767 135.893 55.28C136.966 54.16 138.238 53.2967 139.708 52.69C141.201 52.0833 142.834 51.78 144.608 51.78C147.338 51.78 149.589 52.3633 151.363 53.53C153.159 54.6733 154.548 56.3183 155.528 58.465L150.873 60.32C150.103 59.06 149.204 58.15 148.178 57.59C147.151 57.0067 145.961 56.715 144.608 56.715C143.278 56.715 142.088 57.03 141.038 57.66C140.011 58.2667 139.194 59.13 138.588 60.25C138.004 61.37 137.713 62.7117 137.713 64.275C137.713 65.7217 138.004 67.005 138.588 68.125C139.194 69.2217 140.011 70.085 141.038 70.715C142.088 71.3217 143.278 71.625 144.608 71.625C145.844 71.625 146.941 71.3917 147.898 70.925C148.854 70.4583 149.624 69.7933 150.208 68.93C150.791 68.0433 151.118 67.0167 151.188 65.85L152.658 67.635H144.223V63.05H155.843C155.936 63.4233 156.006 63.82 156.053 64.24C156.099 64.66 156.123 65.08 156.123 65.5C156.123 67.1333 155.808 68.6267 155.178 69.98C154.571 71.31 153.731 72.465 152.658 73.445C151.608 74.4017 150.394 75.1367 149.018 75.65C147.641 76.1633 146.171 76.42 144.608 76.42ZM166.609 76L170.809 52.165H175.394L181.099 68.475H180.854L186.559 52.165H191.144L195.379 76H190.234L188.589 65.36C188.379 63.9367 188.181 62.525 187.994 61.125C187.831 59.7017 187.691 58.2783 187.574 56.855H189.009C188.636 58.395 188.262 59.8417 187.889 61.195C187.539 62.5483 187.119 63.9133 186.629 65.29L182.989 75.72H178.964L175.324 65.29C174.834 63.89 174.402 62.525 174.029 61.195C173.679 59.8417 173.317 58.395 172.944 56.855H174.379C174.262 58.2783 174.122 59.7017 173.959 61.125C173.796 62.525 173.597 63.9367 173.364 65.36L171.719 76H166.609ZM201.689 66.83H212.889V71.555H201.689V66.83ZM196.474 76L204.944 52.165H210.579L218.629 76H213.449L206.939 55.665H208.619L201.619 76H196.474ZM220.816 76V52.165H229.146C231.619 52.165 233.742 52.6433 235.516 53.6C237.312 54.5333 238.689 55.8983 239.646 57.695C240.626 59.4683 241.116 61.6033 241.116 64.1C241.116 66.62 240.626 68.7667 239.646 70.54C238.689 72.3133 237.312 73.6667 235.516 74.6C233.719 75.5333 231.584 76 229.111 76H220.816ZM225.926 72.99L223.896 71.065H228.761C230.184 71.065 231.421 70.8317 232.471 70.365C233.544 69.875 234.372 69.1167 234.956 68.09C235.562 67.0633 235.866 65.7333 235.866 64.1C235.866 62.49 235.574 61.1717 234.991 60.145C234.407 59.1183 233.579 58.36 232.506 57.87C231.456 57.3567 230.219 57.1 228.796 57.1H223.651L225.926 55.595V72.99ZM247.385 66.48V61.615H257.185V66.48H247.385ZM247.28 57.03L249.065 54.965V73.2L247.105 71.135H259.11V76H243.955V52.165H259.11V57.03H247.28ZM275.208 66.48V61.615H285.008V66.48H275.208ZM275.103 57.03L276.888 54.965V73.2L274.928 71.135H286.933V76H271.778V52.165H286.933V57.03H275.103ZM294.008 66.83H305.208V71.555H294.008V66.83ZM288.793 76L297.263 52.165H302.898L310.948 76H305.768L299.258 55.665H300.938L293.938 76H288.793ZM320.984 76.595C319.608 76.595 318.313 76.3967 317.099 76C315.909 75.58 314.836 74.9617 313.879 74.145C312.946 73.305 312.153 72.2317 311.499 70.925L315.489 68.44C316.166 69.56 316.994 70.4117 317.974 70.995C318.954 71.5783 320.051 71.87 321.264 71.87C322.314 71.87 323.108 71.6483 323.644 71.205C324.181 70.7617 324.449 70.1783 324.449 69.455C324.449 68.9883 324.321 68.5917 324.064 68.265C323.831 67.915 323.399 67.5883 322.769 67.285C322.139 66.9817 321.229 66.69 320.039 66.41C318.103 65.9433 316.563 65.36 315.419 64.66C314.299 63.96 313.506 63.1317 313.039 62.175C312.573 61.195 312.339 60.11 312.339 58.92C312.339 57.52 312.678 56.2833 313.354 55.21C314.054 54.1133 315.046 53.25 316.329 52.62C317.613 51.99 319.141 51.675 320.914 51.675C322.921 51.675 324.613 52.0717 325.989 52.865C327.389 53.6583 328.509 54.6967 329.349 55.98L325.359 58.745C324.753 57.9517 324.018 57.38 323.154 57.03C322.314 56.68 321.474 56.505 320.634 56.505C319.631 56.505 318.849 56.7033 318.289 57.1C317.753 57.4733 317.484 58.01 317.484 58.71C317.484 59.3633 317.764 59.9117 318.324 60.355C318.884 60.775 319.981 61.1717 321.614 61.545C323.574 62.0117 325.149 62.5833 326.339 63.26C327.529 63.9367 328.393 64.765 328.929 65.745C329.466 66.725 329.734 67.9033 329.734 69.28C329.734 70.68 329.373 71.9283 328.649 73.025C327.949 74.1217 326.946 74.9967 325.639 75.65C324.333 76.28 322.781 76.595 320.984 76.595ZM341.835 64.66H339.42L345.72 52.165H351.215L342.745 68.475L343.095 65.535V76H337.985V65.535L338.335 68.475L329.9 52.165H335.57L341.835 64.66ZM356.668 73.41C356.668 74.7867 356.248 76.1633 355.408 77.54C354.568 78.94 353.226 80.305 351.383 81.635L349.003 79.395C349.843 78.6483 350.449 77.89 350.823 77.12C351.219 76.3733 351.418 75.685 351.418 75.055C351.418 74.3083 351.208 73.7017 350.788 73.235C350.391 72.745 349.854 72.325 349.178 71.975C349.411 71.2283 349.726 70.6567 350.122 70.26C350.519 69.84 350.963 69.5483 351.453 69.385C351.966 69.1983 352.479 69.105 352.993 69.105C353.623 69.105 354.218 69.28 354.778 69.63C355.338 69.98 355.793 70.47 356.143 71.1C356.493 71.73 356.668 72.5 356.668 73.41Z" fill="black"/>
<path d="M391.768 30.856C393.496 26.344 394.36 23.272 394.36 21.64C394.36 20.008 393.952 19.144 393.136 19.048C390.88 19.048 388.528 22.672 386.08 29.92C383.68 37.12 381.784 44.608 380.392 52.384C379.048 60.112 378.376 65.584 378.376 68.8C378.376 74.224 379.72 76.936 382.408 76.936C382.408 77.272 382.192 77.608 381.76 77.944C381.328 78.28 380.824 78.448 380.248 78.448C376.312 78.448 374.344 74.92 374.344 67.864C374.344 65.272 374.824 61.312 375.784 55.984C376.744 50.608 377.992 44.992 379.528 39.136C381.064 33.28 383.056 28.192 385.504 23.872C387.952 19.504 390.448 17.32 392.992 17.32C395.008 17.32 396.016 18.592 396.016 21.136C396.016 23.056 395.416 25.744 394.216 29.2C391.912 35.92 388.6 42.64 384.28 49.36C383.128 51.136 382.096 52.576 381.184 53.68C380.944 53.968 380.824 53.872 380.824 53.392C380.776 52.48 380.992 51.688 381.472 51.016C385.408 45.112 388.84 38.392 391.768 30.856ZM400.755 32.872C401.859 32.872 402.411 33.616 402.411 35.104C402.411 36.592 401.691 37.792 400.251 38.704C399.531 39.184 398.907 39.424 398.379 39.424C397.611 39.424 397.155 39.184 397.011 38.704L396.939 38.488C397.371 38.488 397.683 38.032 397.875 37.12C398.067 36.16 398.355 35.224 398.739 34.312C399.171 33.352 399.843 32.872 400.755 32.872ZM396.147 74.272C397.395 74.272 399.147 72.616 401.403 69.304C403.659 65.992 405.603 62.68 407.235 59.368L409.683 54.4H411.627C411.339 54.976 410.955 55.768 410.475 56.776C410.043 57.736 409.155 59.488 407.811 62.032C406.467 64.528 405.171 66.736 403.923 68.656C402.723 70.576 401.355 72.328 399.819 73.912C398.331 75.448 397.035 76.216 395.931 76.216C392.379 76.216 390.603 73.912 390.603 69.304C390.603 65.848 391.587 60.232 393.555 52.456C393.747 51.64 393.891 51.016 393.987 50.584C394.131 50.152 394.275 49.6 394.419 48.928C394.563 48.208 394.707 47.56 394.851 46.984C395.091 45.976 395.523 45.472 396.147 45.472C397.011 45.472 397.635 46.096 398.019 47.344C398.211 47.92 398.307 48.616 398.307 49.432C398.307 50.248 398.211 51.112 398.019 52.024C397.827 52.888 397.515 54.184 397.083 55.912C396.651 57.64 396.315 59.056 396.075 60.16C395.835 61.264 395.571 62.608 395.283 64.192C394.755 66.832 394.491 69.184 394.491 71.248C394.491 73.264 395.043 74.272 396.147 74.272ZM421.67 56.56C421.67 60.832 422.342 62.968 423.686 62.968C423.638 63.544 423.23 63.832 422.462 63.832C421.262 63.832 420.35 63.112 419.726 61.672C419.15 60.184 418.862 58.336 418.862 56.128C416.942 56.944 414.95 57.424 412.886 57.568C410.294 73.744 408.086 84.808 406.262 90.76C403.478 100.12 400.142 104.8 396.254 104.8C393.662 104.8 392.366 103.456 392.366 100.768C392.366 99.568 392.63 98.08 393.158 96.304C394.646 91.312 397.406 86.104 401.438 80.68C403.31 78.184 404.942 76.384 406.334 75.28C406.622 73.456 407.078 70.576 407.702 66.64C408.326 62.656 408.806 59.632 409.142 57.568H407.198C406.958 57.568 406.838 57.352 406.838 56.92C406.838 56.44 406.958 56.2 407.198 56.2H409.358C411.71 41.176 414.206 30.832 416.846 25.168C417.854 22.912 419.054 21.04 420.446 19.552C421.838 18.064 423.35 17.32 424.982 17.32C428.006 17.32 429.518 19.528 429.518 23.944C429.518 27.544 428.414 31.432 426.206 35.608C423.518 40.648 420.302 43.744 416.558 44.896L414.902 45.256C414.47 47.608 413.87 51.232 413.102 56.128C415.118 55.984 417.062 55.456 418.934 54.544C419.174 52 419.75 49.84 420.662 48.064C421.622 46.24 422.822 45.328 424.262 45.328C425.414 45.328 425.99 46 425.99 47.344C425.99 49.888 424.574 52.24 421.742 54.4C421.694 55.12 421.67 55.84 421.67 56.56ZM424.334 34.6C426.494 30.424 427.574 26.776 427.574 23.656C427.574 20.536 426.806 18.976 425.27 18.976C423.11 18.976 421.262 21.088 419.726 25.312C418.19 29.488 416.702 35.512 415.262 43.384C418.718 42.616 421.742 39.688 424.334 34.6ZM405.974 77.368C403.238 80.2 400.622 84.256 398.126 89.536C395.63 94.816 394.382 98.344 394.382 100.12C394.382 101.944 394.91 102.856 395.966 102.856C398.174 102.856 400.046 100.648 401.582 96.232C403.118 91.816 404.582 85.528 405.974 77.368ZM421.958 52.456C422.822 51.64 423.47 50.776 423.902 49.864C424.382 48.952 424.622 48.232 424.622 47.704C424.622 47.128 424.478 46.792 424.19 46.696C423.134 46.696 422.39 48.616 421.958 52.456ZM431.677 65.488C431.677 71.296 433.741 74.2 437.869 74.2C439.405 74.2 441.013 73.528 442.693 72.184C444.421 70.792 445.981 69.136 447.373 67.216C450.445 62.8 452.605 59.2 453.853 56.416L454.789 54.4H456.733C455.917 56.32 454.717 58.696 453.133 61.528C451.549 64.312 450.037 66.664 448.597 68.584C447.157 70.504 445.453 72.256 443.485 73.84C441.517 75.376 439.645 76.144 437.869 76.144C430.765 76.144 427.213 72.16 427.213 64.192C427.213 60.496 428.293 56.8 430.453 53.104C433.429 47.968 437.101 45.4 441.469 45.4C444.541 45.4 446.077 47.08 446.077 50.44C446.077 52.936 445.117 55.528 443.197 58.216C440.509 61.864 437.365 63.712 433.765 63.76C433.237 63.76 432.901 63.52 432.757 63.04L432.685 62.752C435.181 62.752 437.557 61.12 439.813 57.856C442.117 54.544 443.269 51.784 443.269 49.576C443.269 48.088 442.693 47.344 441.541 47.344C438.997 47.344 436.621 49.576 434.413 54.04C432.589 57.832 431.677 61.648 431.677 65.488ZM475.291 76C473.947 76 473.275 74.968 473.275 72.904C473.275 71.8 474.619 63.76 477.307 48.784C477.451 47.776 477.883 47.272 478.603 47.272C479.467 47.272 480.115 47.896 480.547 49.144C480.787 49.816 480.907 50.56 480.907 51.376C480.907 52.144 480.811 52.984 480.619 53.896L479.539 59.368H479.971C484.195 49.864 488.275 45.112 492.211 45.112C493.555 45.112 494.611 45.592 495.379 46.552C496.195 47.512 496.603 48.664 496.603 50.008C496.603 52.504 496.219 55.624 495.451 59.368H495.739C499.819 50.488 503.827 46.048 507.763 46.048C509.059 46.048 510.115 46.528 510.931 47.488C511.747 48.448 512.155 49.72 512.155 51.304C512.155 52.888 511.531 56.248 510.283 61.384C509.083 66.52 508.483 70.144 508.483 72.256C508.483 75.376 509.059 76.936 510.211 76.936C510.211 77.272 509.995 77.608 509.563 77.944C509.131 78.28 508.627 78.448 508.051 78.448C505.267 78.448 503.875 76.264 503.875 71.896C503.875 69.16 504.571 65.224 505.963 60.088C507.355 54.904 508.051 51.592 508.051 50.152C508.051 48.664 507.571 47.92 506.611 47.92C504.835 47.92 502.747 50.08 500.347 54.4C497.995 58.672 496.099 62.776 494.659 66.712C493.267 70.648 492.451 73.192 492.211 74.344C491.971 75.448 491.539 76 490.915 76C489.571 76 488.899 74.968 488.899 72.904C488.899 72.136 489.307 69.424 490.123 64.768C491.707 56.224 492.499 51.136 492.499 49.504C492.499 47.824 492.019 46.984 491.059 46.984C489.763 46.984 488.251 48.328 486.523 51.016C484.795 53.656 483.235 56.728 481.843 60.232C478.819 67.624 477.043 72.4 476.515 74.56C476.323 75.52 475.915 76 475.291 76ZM522.772 76.072C518.98 76.072 517.084 73.216 517.084 67.504C517.084 64.192 517.948 60.568 519.676 56.632C522.076 51.304 525.124 47.824 528.82 46.192C530.116 45.664 531.412 45.4 532.708 45.4C534.052 45.4 535.108 45.784 535.876 46.552C536.644 47.32 537.028 48.184 537.028 49.144C537.028 49.576 536.788 49.792 536.308 49.792C535.876 49.744 535.66 49.504 535.66 49.072C535.66 48.64 535.42 48.256 534.94 47.92C534.508 47.536 533.86 47.344 532.996 47.344C529.972 47.344 527.236 50.056 524.788 55.48C522.484 60.52 521.332 65.296 521.332 69.808C521.332 72.592 521.932 73.984 523.132 73.984C524.38 73.984 525.868 72.952 527.596 70.888C529.372 68.776 531.004 66.328 532.492 63.544C535.708 57.688 537.604 53.92 538.18 52.24C538.756 50.56 539.38 49.72 540.052 49.72C541.252 49.72 541.852 50.728 541.852 52.744C541.852 53.368 541.78 54.088 541.636 54.904C540.052 62.584 539.188 67.024 539.044 68.224C538.948 69.424 538.9 70.288 538.9 70.816C538.9 73.12 539.452 74.272 540.556 74.272C541.804 74.272 543.556 72.616 545.812 69.304C548.068 65.992 550.012 62.68 551.644 59.368L554.092 54.4H556.036C555.748 54.976 555.364 55.768 554.884 56.776C554.452 57.736 553.564 59.488 552.22 62.032C550.876 64.528 549.58 66.736 548.332 68.656C547.132 70.576 545.764 72.328 544.228 73.912C542.74 75.448 541.444 76.216 540.34 76.216C536.788 76.216 535.012 73.624 535.012 68.44C535.012 66.712 535.204 64.696 535.588 62.392H535.084C530.188 71.512 526.084 76.072 522.772 76.072ZM579.683 35.608C578.291 40.648 577.187 44.848 576.371 48.208C575.603 51.52 574.739 55.384 573.779 59.8C572.867 64.168 572.411 67.672 572.411 70.312C572.411 72.952 573.011 74.272 574.211 74.272C575.507 74.272 577.283 72.616 579.539 69.304C581.843 65.992 583.811 62.68 585.443 59.368L587.819 54.4H589.763C589.475 54.976 589.091 55.768 588.611 56.776C588.179 57.736 587.291 59.488 585.947 62.032C584.603 64.528 583.307 66.736 582.059 68.656C580.859 70.576 579.491 72.328 577.955 73.912C576.419 75.448 575.099 76.216 573.995 76.216C570.539 76.216 568.811 73.672 568.811 68.584C568.811 66.712 569.075 64.264 569.603 61.24H569.027C563.699 71.128 559.379 76.072 556.067 76.072C552.275 76.072 550.379 73.216 550.379 67.504C550.379 64.192 551.243 60.568 552.971 56.632C555.371 51.304 558.419 47.824 562.115 46.192C563.411 45.664 564.707 45.4 566.003 45.4C567.347 45.4 568.403 45.784 569.171 46.552C569.939 47.32 570.323 48.184 570.323 49.144C570.323 49.576 570.083 49.792 569.603 49.792C569.171 49.744 568.955 49.504 568.955 49.072C568.955 48.64 568.715 48.256 568.235 47.92C567.803 47.536 567.155 47.344 566.291 47.344C563.267 47.344 560.531 50.056 558.083 55.48C555.779 60.52 554.627 65.296 554.627 69.808C554.627 72.592 555.227 73.984 556.427 73.984C558.059 73.984 560.099 72.208 562.547 68.656C564.995 65.104 567.131 61.288 568.955 57.208C570.827 53.128 572.147 49.408 572.915 46.048C573.731 42.64 574.955 38.008 576.587 32.152C577.643 28.36 579.035 26.464 580.763 26.464C581.147 26.464 581.435 26.608 581.627 26.896C581.819 27.136 581.891 27.4 581.843 27.688C581.795 27.928 581.075 30.568 579.683 35.608ZM589.529 65.488C589.529 71.296 591.593 74.2 595.721 74.2C597.257 74.2 598.865 73.528 600.545 72.184C602.273 70.792 603.833 69.136 605.225 67.216C608.297 62.8 610.457 59.2 611.705 56.416L612.641 54.4H614.585C613.769 56.32 612.569 58.696 610.985 61.528C609.401 64.312 607.889 66.664 606.449 68.584C605.009 70.504 603.305 72.256 601.337 73.84C599.369 75.376 597.497 76.144 595.721 76.144C588.617 76.144 585.065 72.16 585.065 64.192C585.065 60.496 586.145 56.8 588.305 53.104C591.281 47.968 594.953 45.4 599.321 45.4C602.393 45.4 603.929 47.08 603.929 50.44C603.929 52.936 602.969 55.528 601.049 58.216C598.361 61.864 595.217 63.712 591.617 63.76C591.089 63.76 590.753 63.52 590.609 63.04L590.537 62.752C593.033 62.752 595.409 61.12 597.665 57.856C599.969 54.544 601.121 51.784 601.121 49.576C601.121 48.088 600.545 47.344 599.393 47.344C596.849 47.344 594.473 49.576 592.265 54.04C590.441 57.832 589.529 61.648 589.529 65.488ZM659.927 35.608C658.535 40.648 657.431 44.848 656.615 48.208C655.847 51.52 654.983 55.384 654.023 59.8C653.111 64.168 652.655 67.672 652.655 70.312C652.655 72.952 653.255 74.272 654.455 74.272C655.751 74.272 657.527 72.616 659.783 69.304C662.087 65.992 664.055 62.68 665.687 59.368L668.063 54.4H670.007C669.719 54.976 669.335 55.768 668.855 56.776C668.423 57.736 667.535 59.488 666.191 62.032C664.847 64.528 663.551 66.736 662.303 68.656C661.103 70.576 659.735 72.328 658.199 73.912C656.663 75.448 655.343 76.216 654.239 76.216C650.783 76.216 649.055 73.672 649.055 68.584C649.055 66.712 649.319 64.264 649.847 61.24H649.271C643.943 71.128 639.623 76.072 636.311 76.072C632.519 76.072 630.623 73.216 630.623 67.504C630.623 64.192 631.487 60.568 633.215 56.632C635.615 51.304 638.663 47.824 642.359 46.192C643.655 45.664 644.951 45.4 646.247 45.4C647.591 45.4 648.647 45.784 649.415 46.552C650.183 47.32 650.567 48.184 650.567 49.144C650.567 49.576 650.327 49.792 649.847 49.792C649.415 49.744 649.199 49.504 649.199 49.072C649.199 48.64 648.959 48.256 648.479 47.92C648.047 47.536 647.399 47.344 646.535 47.344C643.511 47.344 640.775 50.056 638.327 55.48C636.023 60.52 634.871 65.296 634.871 69.808C634.871 72.592 635.471 73.984 636.671 73.984C638.303 73.984 640.343 72.208 642.791 68.656C645.239 65.104 647.375 61.288 649.199 57.208C651.071 53.128 652.391 49.408 653.159 46.048C653.975 42.64 655.199 38.008 656.831 32.152C657.887 28.36 659.279 26.464 661.007 26.464C661.391 26.464 661.679 26.608 661.871 26.896C662.063 27.136 662.135 27.4 662.087 27.688C662.039 27.928 661.319 30.568 659.927 35.608ZM669.773 65.488C669.773 71.296 671.837 74.2 675.965 74.2C677.501 74.2 679.109 73.528 680.789 72.184C682.517 70.792 684.077 69.136 685.469 67.216C688.541 62.8 690.701 59.2 691.949 56.416L692.885 54.4H694.829C694.013 56.32 692.813 58.696 691.229 61.528C689.645 64.312 688.133 66.664 686.693 68.584C685.253 70.504 683.549 72.256 681.581 73.84C679.613 75.376 677.741 76.144 675.965 76.144C668.861 76.144 665.309 72.16 665.309 64.192C665.309 60.496 666.389 56.8 668.549 53.104C671.525 47.968 675.197 45.4 679.565 45.4C682.637 45.4 684.173 47.08 684.173 50.44C684.173 52.936 683.213 55.528 681.293 58.216C678.605 61.864 675.461 63.712 671.861 63.76C671.333 63.76 670.997 63.52 670.853 63.04L670.781 62.752C673.277 62.752 675.653 61.12 677.909 57.856C680.213 54.544 681.365 51.784 681.365 49.576C681.365 48.088 680.789 47.344 679.637 47.344C677.093 47.344 674.717 49.576 672.509 54.04C670.685 57.832 669.773 61.648 669.773 65.488ZM708.614 30.856C710.342 26.344 711.206 23.272 711.206 21.64C711.206 20.008 710.798 19.144 709.982 19.048C707.726 19.048 705.374 22.672 702.926 29.92C700.526 37.12 698.63 44.608 697.238 52.384C695.894 60.112 695.222 65.584 695.222 68.8C695.222 74.224 696.566 76.936 699.254 76.936C699.254 77.272 699.038 77.608 698.606 77.944C698.174 78.28 697.67 78.448 697.094 78.448C693.158 78.448 691.19 74.92 691.19 67.864C691.19 65.272 691.67 61.312 692.63 55.984C693.59 50.608 694.838 44.992 696.374 39.136C697.91 33.28 699.902 28.192 702.35 23.872C704.798 19.504 707.294 17.32 709.838 17.32C711.854 17.32 712.862 18.592 712.862 21.136C712.862 23.056 712.262 25.744 711.062 29.2C708.758 35.92 705.446 42.64 701.126 49.36C699.974 51.136 698.942 52.576 698.03 53.68C697.79 53.968 697.67 53.872 697.67 53.392C697.622 52.48 697.838 51.688 698.318 51.016C702.254 45.112 705.686 38.392 708.614 30.856ZM717.6 32.872C718.704 32.872 719.256 33.616 719.256 35.104C719.256 36.592 718.536 37.792 717.096 38.704C716.376 39.184 715.752 39.424 715.224 39.424C714.456 39.424 714 39.184 713.856 38.704L713.784 38.488C714.216 38.488 714.528 38.032 714.72 37.12C714.912 36.16 715.2 35.224 715.584 34.312C716.016 33.352 716.688 32.872 717.6 32.872ZM712.992 74.272C714.24 74.272 715.992 72.616 718.248 69.304C720.504 65.992 722.448 62.68 724.08 59.368L726.528 54.4H728.472C728.184 54.976 727.8 55.768 727.32 56.776C726.888 57.736 726 59.488 724.656 62.032C723.312 64.528 722.016 66.736 720.768 68.656C719.568 70.576 718.2 72.328 716.664 73.912C715.176 75.448 713.88 76.216 712.776 76.216C709.224 76.216 707.448 73.912 707.448 69.304C707.448 65.848 708.432 60.232 710.4 52.456C710.592 51.64 710.736 51.016 710.832 50.584C710.976 50.152 711.12 49.6 711.264 48.928C711.408 48.208 711.552 47.56 711.696 46.984C711.936 45.976 712.368 45.472 712.992 45.472C713.856 45.472 714.48 46.096 714.864 47.344C715.056 47.92 715.152 48.616 715.152 49.432C715.152 50.248 715.056 51.112 714.864 52.024C714.672 52.888 714.36 54.184 713.928 55.912C713.496 57.64 713.16 59.056 712.92 60.16C712.68 61.264 712.416 62.608 712.128 64.192C711.6 66.832 711.336 69.184 711.336 71.248C711.336 73.264 711.888 74.272 712.992 74.272ZM728.148 65.776C728.148 71.392 730.092 74.2 733.98 74.2C735.516 74.2 737.124 73.528 738.804 72.184C740.532 70.792 742.092 69.136 743.484 67.216C746.556 62.8 748.716 59.2 749.964 56.416L750.9 54.4H752.844C752.028 56.32 750.828 58.696 749.244 61.528C747.66 64.312 746.148 66.664 744.708 68.584C743.268 70.504 741.564 72.256 739.596 73.84C737.628 75.376 735.756 76.144 733.98 76.144C728.988 76.144 725.82 73.864 724.476 69.304C724.044 67.864 723.828 66.064 723.828 63.904C723.828 61.696 724.5 59.008 725.844 55.84C727.812 51.136 730.5 47.968 733.908 46.336C735.252 45.712 736.572 45.4 737.868 45.4C739.212 45.4 740.268 45.76 741.036 46.48C741.948 47.344 742.404 48.352 742.404 49.504C742.404 50.608 742.284 51.64 742.044 52.6C741.804 53.56 741.3 54.424 740.532 55.192C739.812 55.912 738.996 56.272 738.084 56.272C737.7 56.272 737.412 56.008 737.22 55.48C737.604 55.48 738.108 54.808 738.732 53.464C739.404 52.072 739.74 50.704 739.74 49.36C739.74 48.016 739.164 47.344 738.012 47.344C735.516 47.344 733.236 49.432 731.172 53.608C729.156 57.784 728.148 61.84 728.148 65.776ZM758.558 32.872C759.662 32.872 760.214 33.616 760.214 35.104C760.214 36.592 759.494 37.792 758.054 38.704C757.334 39.184 756.71 39.424 756.182 39.424C755.414 39.424 754.958 39.184 754.814 38.704L754.742 38.488C755.174 38.488 755.486 38.032 755.678 37.12C755.87 36.16 756.158 35.224 756.542 34.312C756.974 33.352 757.646 32.872 758.558 32.872ZM753.95 74.272C755.198 74.272 756.95 72.616 759.206 69.304C761.462 65.992 763.406 62.68 765.038 59.368L767.486 54.4H769.43C769.142 54.976 768.758 55.768 768.278 56.776C767.846 57.736 766.958 59.488 765.614 62.032C764.27 64.528 762.974 66.736 761.726 68.656C760.526 70.576 759.158 72.328 757.622 73.912C756.134 75.448 754.838 76.216 753.734 76.216C750.182 76.216 748.406 73.912 748.406 69.304C748.406 65.848 749.39 60.232 751.358 52.456C751.55 51.64 751.694 51.016 751.79 50.584C751.934 50.152 752.078 49.6 752.222 48.928C752.366 48.208 752.51 47.56 752.654 46.984C752.894 45.976 753.326 45.472 753.95 45.472C754.814 45.472 755.438 46.096 755.822 47.344C756.014 47.92 756.11 48.616 756.11 49.432C756.11 50.248 756.014 51.112 755.822 52.024C755.63 52.888 755.318 54.184 754.886 55.912C754.454 57.64 754.118 59.056 753.878 60.16C753.638 61.264 753.374 62.608 753.086 64.192C752.558 66.832 752.294 69.184 752.294 71.248C752.294 73.264 752.846 74.272 753.95 74.272ZM769.033 66.496C769.033 71.536 770.377 74.056 773.065 74.056C774.889 74.056 776.593 72.928 778.177 70.672C781.201 66.448 783.049 60.88 783.721 53.968C782.041 53.248 780.865 52.072 780.193 50.44C779.761 49.432 779.545 48.592 779.545 47.92C779.545 47.2 779.641 46.576 779.833 46.048C780.265 44.752 781.057 44.104 782.209 44.104C783.361 44.104 784.225 44.848 784.801 46.336C785.425 47.776 785.737 49.624 785.737 51.88C785.737 52.024 785.737 52.192 785.737 52.384C786.313 52.576 787.153 52.672 788.257 52.672C789.409 52.672 790.417 52.216 791.281 51.304C792.145 50.392 792.577 49.552 792.577 48.784C792.577 48.592 792.697 48.472 792.937 48.424C793.177 48.328 793.393 48.328 793.585 48.424C793.825 48.52 793.945 48.664 793.945 48.856C793.945 50.248 793.345 51.568 792.145 52.816C790.993 54.064 789.433 54.688 787.465 54.688C786.985 54.688 786.361 54.64 785.593 54.544C785.305 57.808 784.609 61.048 783.505 64.264C782.449 67.432 780.961 70.192 779.041 72.544C777.121 74.848 775.057 76 772.849 76C768.673 76 766.105 73.768 765.145 69.304C764.905 68.008 764.785 66.688 764.785 65.344C764.785 62.32 765.481 59.08 766.873 55.624C768.697 51.112 770.953 48.304 773.641 47.2C775.033 46.72 775.993 46.648 776.521 46.984C777.049 47.32 777.385 47.704 777.529 48.136C775.321 48.136 773.353 50.2 771.625 54.328C769.897 58.456 769.033 62.512 769.033 66.496ZM815.766 74.272C817.014 74.272 818.766 72.616 821.022 69.304C823.278 65.992 825.222 62.68 826.854 59.368L829.302 54.4H831.246C830.958 54.976 830.574 55.768 830.094 56.776C829.662 57.736 828.774 59.488 827.43 62.032C826.086 64.528 824.79 66.736 823.542 68.656C822.342 70.576 820.974 72.328 819.438 73.912C817.95 75.448 816.534 76.216 815.19 76.216C813.846 76.216 812.742 75.808 811.878 74.992C810.822 73.936 810.294 72.088 810.294 69.448C810.294 66.808 810.75 63.328 811.662 59.008H811.158C805.638 70.336 801.054 76 797.406 76C794.19 76 792.582 73.912 792.582 69.736C792.582 66.712 793.878 60.688 796.47 51.664C797.046 49.6 797.478 48.064 797.766 47.056C798.054 46 798.51 45.472 799.134 45.472C799.998 45.472 800.622 46.096 801.006 47.344C801.198 47.872 801.294 48.544 801.294 49.36C801.294 50.128 801.174 50.992 800.934 51.952C800.694 52.864 800.19 54.64 799.422 57.28C797.358 64.384 796.326 69.16 796.326 71.608C796.326 73.192 796.806 73.984 797.766 73.984C798.966 73.984 800.382 72.904 802.014 70.744C803.742 68.488 805.158 66.304 806.262 64.192C807.366 62.08 808.254 60.352 808.926 59.008C809.598 57.664 810.27 56.272 810.942 54.832C811.614 53.344 812.142 52.12 812.526 51.16C812.958 50.2 813.366 49.288 813.75 48.424C814.134 47.512 814.326 47.032 814.326 46.984C814.758 45.976 815.238 45.472 815.766 45.472C816.63 45.472 817.254 46.096 817.638 47.344C817.83 47.92 817.926 48.616 817.926 49.432C817.926 50.248 817.83 51.112 817.638 52.024C817.446 52.888 817.134 54.184 816.702 55.912C816.27 57.64 815.934 59.056 815.694 60.16C815.454 61.264 815.166 62.608 814.83 64.192C814.35 66.832 814.11 69.184 814.11 71.248C814.11 73.264 814.662 74.272 815.766 74.272ZM838.196 37.552H838.34C838.772 37.6 839.108 37.792 839.348 38.128C839.588 38.464 839.708 38.824 839.708 39.208C839.708 39.544 839.372 40.288 838.7 41.44C838.076 42.592 837.764 43.528 837.764 44.248C837.764 44.92 837.86 45.568 838.052 46.192C838.244 46.768 838.844 48.208 839.852 50.512C842.06 55.552 843.164 60.064 843.164 64.048C843.164 67.984 842.084 71.248 839.924 73.84C837.812 76.432 835.268 77.728 832.292 77.728C829.364 77.728 827.9 75.952 827.9 72.4C827.9 68.8 829.172 64.96 831.716 60.88C833.204 58.528 834.812 56.752 836.54 55.552C837.02 55.216 837.332 55.288 837.476 55.768C837.668 56.248 837.572 56.632 837.188 56.92C834.404 58.936 832.244 62.128 830.708 66.496C829.316 70.432 829.172 73.168 830.276 74.704C830.66 75.28 831.212 75.568 831.932 75.568C834.044 75.568 835.7 74.152 836.9 71.32C838.1 68.488 838.7 64.96 838.7 60.736C838.7 57.088 838.268 53.704 837.404 50.584C836.54 47.464 836.06 45.664 835.964 45.184C834.524 47.92 832.964 50.992 831.284 54.4H829.34C832.076 48.976 834.188 44.896 835.676 42.16C835.868 39.088 836.708 37.552 838.196 37.552ZM859.391 70.816C860.495 70.816 861.047 71.56 861.047 73.048C861.047 74.536 860.327 75.736 858.887 76.648C858.167 77.128 857.543 77.368 857.015 77.368C856.247 77.368 855.767 77.056 855.575 76.432C856.007 76.432 856.319 75.976 856.511 75.064C856.703 74.104 856.991 73.168 857.375 72.256C857.807 71.296 858.479 70.816 859.391 70.816Z" fill="#723F5F"/>
</svg>
