<svg width="414" height="100" viewBox="0 0 414 100" fill="none" xmlns="http://www.w3.org/2000/svg">
<rect x="242" width="172" height="100" fill="#6E6E6E"/>
<rect width="242" height="100" fill="#723F5F"/>
<path d="M21 68.7804V32.8509H25.6537V42.6374L25.1747 40.9265C26.1784 38.189 27.8665 36.1131 30.239 34.6987C32.6115 33.2387 35.5543 32.5087 39.0674 32.5087V37.2309C38.8849 37.2309 38.7024 37.2309 38.5199 37.2309C38.3374 37.1852 38.1549 37.1624 37.9724 37.1624C34.1856 37.1624 31.22 38.3259 29.0756 40.6527C26.9312 42.934 25.859 46.1961 25.859 50.4393V68.7804H21Z" fill="#F5F5F5"/>
<path d="M62.8611 69.1226C59.1199 69.1226 55.8349 68.347 53.0062 66.7958C50.1774 65.1989 47.9646 63.0317 46.3678 60.2942C44.7709 57.5111 43.9725 54.3402 43.9725 50.7814C43.9725 47.2227 44.7253 44.0746 46.2309 41.3371C47.7821 38.5996 49.8809 36.4552 52.5271 34.904C55.219 33.3071 58.2302 32.5087 61.5608 32.5087C64.9371 32.5087 67.9255 33.2843 70.5261 34.8356C73.1723 36.3412 75.2483 38.4855 76.7539 41.2687C78.2595 44.0062 79.0123 47.1771 79.0123 50.7814C79.0123 51.0096 78.9895 51.2605 78.9439 51.5343C78.9439 51.7624 78.9439 52.0133 78.9439 52.2871H47.6681V48.6599H76.3433L74.427 50.0971C74.427 47.4965 73.8567 45.1924 72.7161 43.1849C71.6211 41.1318 70.1155 39.5349 68.1992 38.3943C66.283 37.2537 64.0702 36.6834 61.5608 36.6834C59.0971 36.6834 56.8843 37.2537 54.9224 38.3943C52.9605 39.5349 51.4321 41.1318 50.3371 43.1849C49.2421 45.238 48.6946 47.5877 48.6946 50.2339V50.9868C48.6946 53.7242 49.2878 56.1424 50.474 58.2411C51.7059 60.2942 53.394 61.9139 55.5384 63.1001C57.7283 64.2408 60.2149 64.8111 62.998 64.8111C65.188 64.8111 67.2183 64.4233 69.0889 63.6476C71.0052 62.872 72.6477 61.6858 74.0164 60.0889L76.7539 63.237C75.157 65.1533 73.1495 66.6133 70.7314 67.617C68.3589 68.6207 65.7355 69.1226 62.8611 69.1226Z" fill="#F5F5F5"/>
<path d="M103.822 69.1226C100.263 69.1226 97.0694 68.347 94.2407 66.7958C91.4576 65.1989 89.2676 63.0317 87.6707 60.2942C86.0738 57.5111 85.2754 54.3402 85.2754 50.7814C85.2754 47.1771 86.0738 44.0062 87.6707 41.2687C89.2676 38.5312 91.4576 36.3868 94.2407 34.8356C97.0694 33.2843 100.263 32.5087 103.822 32.5087C106.879 32.5087 109.639 33.1018 112.103 34.2881C114.567 35.4743 116.506 37.2537 117.92 39.6262L114.293 42.0899C113.061 40.2649 111.532 38.919 109.708 38.0521C107.883 37.1852 105.898 36.7518 103.753 36.7518C101.198 36.7518 98.8944 37.3449 96.8413 38.5312C94.7882 39.6718 93.1685 41.2915 91.9823 43.3902C90.796 45.489 90.2029 47.9527 90.2029 50.7814C90.2029 53.6102 90.796 56.0739 91.9823 58.1727C93.1685 60.2714 94.7882 61.9139 96.8413 63.1001C98.8944 64.2408 101.198 64.8111 103.753 64.8111C105.898 64.8111 107.883 64.3776 109.708 63.5108C111.532 62.6439 113.061 61.3208 114.293 59.5414L117.92 62.0051C116.506 64.332 114.567 66.1114 112.103 67.3433C109.639 68.5295 106.879 69.1226 103.822 69.1226Z" fill="#F5F5F5"/>
<path d="M126.931 68.7804V32.8509H131.79V68.7804H126.931ZM129.394 24.9122C128.391 24.9122 127.547 24.57 126.862 23.8856C126.178 23.2012 125.836 22.38 125.836 21.4219C125.836 20.4637 126.178 19.6653 126.862 19.0266C127.547 18.3422 128.391 18 129.394 18C130.398 18 131.242 18.3194 131.927 18.9581C132.611 19.5969 132.953 20.3953 132.953 21.3534C132.953 22.3572 132.611 23.2012 131.927 23.8856C131.288 24.57 130.444 24.9122 129.394 24.9122Z" fill="#F5F5F5"/>
<path d="M163.856 69.1226C160.754 69.1226 157.948 68.4154 155.439 67.0011C152.929 65.5411 150.922 63.4651 149.416 60.7733C147.956 58.0358 147.226 54.7052 147.226 50.7814C147.226 46.8577 147.956 43.5499 149.416 40.858C150.876 38.1205 152.861 36.0446 155.37 34.6303C157.879 33.2159 160.708 32.5087 163.856 32.5087C167.278 32.5087 170.335 33.2843 173.027 34.8356C175.764 36.3412 177.909 38.4855 179.46 41.2687C181.011 44.0062 181.787 47.1771 181.787 50.7814C181.787 54.4314 181.011 57.6252 179.46 60.3627C177.909 63.1001 175.764 65.2445 173.027 66.7958C170.335 68.347 167.278 69.1226 163.856 69.1226ZM145.31 82.0573V32.8509H149.964V43.664L149.485 50.8499L150.169 58.1042V82.0573H145.31ZM163.514 64.8111C166.069 64.8111 168.35 64.2408 170.358 63.1001C172.365 61.9139 173.962 60.2714 175.148 58.1727C176.335 56.0283 176.928 53.5646 176.928 50.7814C176.928 47.9983 176.335 45.5574 175.148 43.4587C173.962 41.3599 172.365 39.7174 170.358 38.5312C168.35 37.3449 166.069 36.7518 163.514 36.7518C160.959 36.7518 158.655 37.3449 156.602 38.5312C154.594 39.7174 152.998 41.3599 151.811 43.4587C150.671 45.5574 150.1 47.9983 150.1 50.7814C150.1 53.5646 150.671 56.0283 151.811 58.1727C152.998 60.2714 154.594 61.9139 156.602 63.1001C158.655 64.2408 160.959 64.8111 163.514 64.8111Z" fill="#F5F5F5"/>
<path d="M206.954 69.1226C203.212 69.1226 199.927 68.347 197.099 66.7958C194.27 65.1989 192.057 63.0317 190.46 60.2942C188.863 57.5111 188.065 54.3402 188.065 50.7814C188.065 47.2227 188.818 44.0746 190.323 41.3371C191.875 38.5996 193.973 36.4552 196.62 34.904C199.311 33.3071 202.323 32.5087 205.653 32.5087C209.03 32.5087 212.018 33.2843 214.619 34.8356C217.265 36.3412 219.341 38.4855 220.846 41.2687C222.352 44.0062 223.105 47.1771 223.105 50.7814C223.105 51.0096 223.082 51.2605 223.036 51.5343C223.036 51.7624 223.036 52.0133 223.036 52.2871H191.761V48.6599H220.436L218.52 50.0971C218.52 47.4965 217.949 45.1924 216.809 43.1849C215.714 41.1318 214.208 39.5349 212.292 38.3943C210.375 37.2537 208.163 36.6834 205.653 36.6834C203.19 36.6834 200.977 37.2537 199.015 38.3943C197.053 39.5349 195.525 41.1318 194.43 43.1849C193.335 45.238 192.787 47.5877 192.787 50.2339V50.9868C192.787 53.7242 193.38 56.1424 194.566 58.2411C195.798 60.2942 197.486 61.9139 199.631 63.1001C201.821 64.2408 204.307 64.8111 207.09 64.8111C209.28 64.8111 211.311 64.4233 213.181 63.6476C215.098 62.872 216.74 61.6858 218.109 60.0889L220.846 63.237C219.249 65.1533 217.242 66.6133 214.824 67.617C212.451 68.6207 209.828 69.1226 206.954 69.1226Z" fill="#F5F5F5"/>
<path d="M280.052 69.394C276.594 69.394 273.496 68.6306 270.757 67.1038C268.062 65.5771 265.929 63.4441 264.358 60.7048C262.786 57.9656 262 54.7774 262 51.14C262 47.5027 262.786 44.3369 264.358 41.6426C265.929 38.9034 268.062 36.7704 270.757 35.2436C273.496 33.7168 276.594 32.9534 280.052 32.9534C283.061 32.9534 285.777 33.627 288.202 34.9742C290.627 36.3213 292.558 38.3421 293.995 41.0364C295.477 43.7307 296.218 47.0986 296.218 51.14C296.218 55.1815 295.499 58.5494 294.062 61.2437C292.67 63.938 290.762 65.9812 288.337 67.3733C285.912 68.7204 283.15 69.394 280.052 69.394ZM280.591 63.7359C282.836 63.7359 284.857 63.2195 286.653 62.1867C288.494 61.1539 289.931 59.6945 290.964 57.8085C292.042 55.8775 292.58 53.6547 292.58 51.14C292.58 48.5804 292.042 46.3801 290.964 44.539C289.931 42.653 288.494 41.1935 286.653 40.1607C284.857 39.1279 282.836 38.6115 280.591 38.6115C278.301 38.6115 276.257 39.1279 274.461 40.1607C272.665 41.1935 271.228 42.653 270.15 44.539C269.073 46.3801 268.534 48.5804 268.534 51.14C268.534 53.6547 269.073 55.8775 270.15 57.8085C271.228 59.6945 272.665 61.1539 274.461 62.1867C276.257 63.2195 278.301 63.7359 280.591 63.7359ZM292.783 68.9898V59.3577L293.187 51.0727L292.513 42.7877V19.0104H298.979V68.9898H292.783Z" fill="#F5F5F5"/>
<path d="M311.214 68.9898V33.2902H317.411V42.9897L316.805 40.5649C317.793 38.0951 319.454 36.2091 321.79 34.9068C324.125 33.6046 326.999 32.9534 330.411 32.9534V39.2177C330.142 39.1728 329.872 39.1503 329.603 39.1503C329.378 39.1503 329.154 39.1503 328.929 39.1503C325.472 39.1503 322.733 40.1832 320.712 42.2488C318.691 44.3144 317.681 47.3006 317.681 51.2074V68.9898H311.214Z" fill="#F5F5F5"/>
<path d="M338.381 68.9898V33.2902H344.847V68.9898H338.381ZM341.614 26.4197C340.357 26.4197 339.302 26.0156 338.448 25.2073C337.64 24.399 337.236 23.4111 337.236 22.2435C337.236 21.0311 337.64 20.0207 338.448 19.2124C339.302 18.4041 340.357 18 341.614 18C342.872 18 343.904 18.4041 344.713 19.2124C345.566 19.9758 345.993 20.9413 345.993 22.1088C345.993 23.3213 345.588 24.3541 344.78 25.2073C343.972 26.0156 342.917 26.4197 341.614 26.4197Z" fill="#F5F5F5"/>
<path d="M376.121 69.394C373.158 69.394 370.441 68.7204 367.971 67.3733C365.546 65.9812 363.593 63.938 362.111 61.2437C360.674 58.5494 359.956 55.1815 359.956 51.14C359.956 47.0986 360.652 43.7307 362.044 41.0364C363.481 38.3421 365.412 36.3213 367.836 34.9742C370.306 33.627 373.068 32.9534 376.121 32.9534C379.624 32.9534 382.723 33.7168 385.417 35.2436C388.111 36.7704 390.244 38.9034 391.816 41.6426C393.388 44.3369 394.173 47.5027 394.173 51.14C394.173 54.7774 393.388 57.9656 391.816 60.7048C390.244 63.4441 388.111 65.5771 385.417 67.1038C382.723 68.6306 379.624 69.394 376.121 69.394ZM357.194 82.0573V33.2902H363.391V42.9224L362.987 51.2074L363.66 59.4924V82.0573H357.194ZM375.583 63.7359C377.873 63.7359 379.916 63.2195 381.712 62.1867C383.553 61.1539 384.99 59.6945 386.023 57.8085C387.101 55.8775 387.64 53.6547 387.64 51.14C387.64 48.5804 387.101 46.3801 386.023 44.539C384.99 42.653 383.553 41.1935 381.712 40.1607C379.916 39.1279 377.873 38.6115 375.583 38.6115C373.337 38.6115 371.294 39.1279 369.453 40.1607C367.657 41.1935 366.22 42.653 365.142 44.539C364.109 46.3801 363.593 48.5804 363.593 51.14C363.593 53.6547 364.109 55.8775 365.142 57.8085C366.22 59.6945 367.657 61.1539 369.453 62.1867C371.294 63.2195 373.337 63.7359 375.583 63.7359Z" fill="#F5F5F5"/>
</svg>
