<svg width="341" height="77" viewBox="0 0 341 77" fill="none" xmlns="http://www.w3.org/2000/svg">
<path d="M9.05762 58C8.53353 58 8.13477 57.8519 7.86133 57.5557C7.61068 57.2594 7.48535 56.929 7.48535 56.5645C7.48535 56.2227 7.59928 55.915 7.82715 55.6416C8.0778 55.3454 8.44238 55.1973 8.9209 55.1973H15.1758V33.7666L11.0059 34.6211C10.9147 34.6439 10.778 34.6553 10.5957 34.6553C10.14 34.6553 9.79818 34.5186 9.57031 34.2451C9.34245 33.9489 9.22852 33.6299 9.22852 33.2881C9.22852 32.5589 9.57031 32.126 10.2539 31.9893L16.0986 30.8271C16.4176 30.7588 16.6797 30.7246 16.8848 30.7246C17.4316 30.7246 17.7734 30.9069 17.9102 31.2715C18.0697 31.6133 18.1608 32.069 18.1836 32.6387L18.3203 36.1934C19.528 34.3249 21.2256 32.8665 23.4131 31.8184C25.6006 30.7474 28.3691 30.2119 31.7188 30.2119C32.8581 30.2119 33.6442 30.3942 34.0771 30.7588C34.5101 31.1006 34.7266 31.6019 34.7266 32.2627V36.9795C34.7266 37.6175 34.5557 38.096 34.2139 38.415C33.8721 38.734 33.4847 38.8936 33.0518 38.8936C32.6644 38.8936 32.2998 38.7454 31.958 38.4492C31.6162 38.153 31.4453 37.7087 31.4453 37.1162V33.0146C28.5286 33.0146 25.8626 33.5957 23.4473 34.7578C21.0547 35.8971 19.3913 37.6517 18.457 40.0215V55.1973H29.9414C30.3971 55.1973 30.7389 55.3454 30.9668 55.6416C31.1947 55.915 31.3086 56.234 31.3086 56.5986C31.3086 56.9404 31.1833 57.2594 30.9326 57.5557C30.7048 57.8519 30.363 58 29.9072 58H9.05762ZM54.6123 58.5811C51.5817 58.5811 48.8929 58.0114 46.5459 56.8721C44.2217 55.71 42.3988 54.0465 41.0771 51.8818C39.7783 49.7171 39.1289 47.1195 39.1289 44.0889C39.1289 41.1722 39.8125 38.6771 41.1797 36.6035C42.5697 34.5299 44.404 32.9463 46.6826 31.8525C48.984 30.7588 51.502 30.2119 54.2363 30.2119C57.7682 30.2119 60.6963 31.1803 63.0205 33.1172C65.3675 35.054 66.541 37.891 66.541 41.6279C66.541 42.471 66.3018 43.1774 65.8232 43.7471C65.3447 44.3167 64.7067 44.6016 63.9092 44.6016H42.4102C42.5241 48.3158 43.6976 51.1071 45.9307 52.9756C48.1637 54.8441 50.9665 55.7783 54.3389 55.7783C56.0023 55.7783 57.6657 55.4707 59.3291 54.8555C60.9925 54.2402 62.485 53.306 63.8066 52.0527C64.2852 51.6654 64.7523 51.4717 65.208 51.4717C65.6182 51.4717 65.9486 51.6198 66.1992 51.916C66.4499 52.2122 66.5752 52.5654 66.5752 52.9756C66.5752 53.4769 66.3701 53.9554 65.96 54.4111C65.1169 55.3226 64.0345 56.0859 62.7129 56.7012C61.3913 57.3164 60.0013 57.7835 58.543 58.1025C57.1074 58.4215 55.7972 58.5811 54.6123 58.5811ZM42.5127 42.1064H63.6357C63.5902 41.2633 63.4535 40.3291 63.2256 39.3037C62.9977 38.2555 62.5648 37.2529 61.9268 36.2959C61.3115 35.3389 60.3887 34.5527 59.1582 33.9375C57.9505 33.3223 56.3327 33.0146 54.3047 33.0146C50.9779 33.0146 48.2777 33.8008 46.2041 35.373C44.1533 36.9453 42.9229 39.1898 42.5127 42.1064ZM85.3672 58.5811C80.8099 58.5811 77.1071 57.305 74.2588 54.7529C71.4333 52.1781 70.0205 48.6234 70.0205 44.0889C70.0205 41.1722 70.7155 38.6771 72.1055 36.6035C73.5182 34.5299 75.3867 32.9463 77.7109 31.8525C80.0579 30.7588 82.6442 30.2119 85.4697 30.2119C88.8649 30.2119 91.6676 30.8613 93.8779 32.1602C96.111 33.459 97.2275 35.6465 97.2275 38.7227C97.2275 39.4974 97.0566 40.1468 96.7148 40.6709C96.3958 41.195 95.8831 41.457 95.1768 41.457C94.3564 41.457 93.8324 40.8304 93.6045 39.5771C93.3994 38.3011 93.1715 36.6263 92.9209 34.5527C91.7132 33.9603 90.5397 33.5615 89.4004 33.3564C88.2611 33.1286 87.1217 33.0146 85.9824 33.0146C81.9948 33.0146 78.8844 33.9945 76.6514 35.9541C74.4183 37.9137 73.3018 40.6253 73.3018 44.0889C73.3018 48.0537 74.3955 50.9932 76.583 52.9072C78.7933 54.8213 81.6302 55.7783 85.0938 55.7783C87.2585 55.7783 89.0472 55.4821 90.46 54.8896C91.8727 54.2972 93.2513 53.3743 94.5957 52.1211C94.9831 51.7565 95.4502 51.5742 95.9971 51.5742C96.7946 51.5742 97.1934 52.0413 97.1934 52.9756C97.1934 53.4769 96.9883 53.9554 96.5781 54.4111C95.735 55.3226 94.6527 56.0859 93.3311 56.7012C92.0322 57.3164 90.6764 57.7835 89.2637 58.1025C87.8509 58.4215 86.5521 58.5811 85.3672 58.5811ZM119.301 23.6152C118.526 23.6152 117.854 23.3418 117.284 22.7949C116.737 22.248 116.464 21.5872 116.464 20.8125C116.464 20.015 116.737 19.3428 117.284 18.7959C117.854 18.249 118.526 17.9756 119.301 17.9756C120.098 17.9756 120.759 18.249 121.283 18.7959C121.83 19.3428 122.104 20.015 122.104 20.8125C122.104 21.5872 121.83 22.248 121.283 22.7949C120.759 23.3418 120.098 23.6152 119.301 23.6152ZM105.731 58C105.207 58 104.809 57.8519 104.535 57.5557C104.285 57.2367 104.159 56.8949 104.159 56.5303C104.159 56.1885 104.273 55.8809 104.501 55.6074C104.752 55.334 105.116 55.1973 105.595 55.1973H118.31V33.4248L106.928 34.9629C106.882 34.9629 106.837 34.9743 106.791 34.9971C106.768 34.9971 106.734 34.9971 106.688 34.9971C106.233 34.9971 105.88 34.849 105.629 34.5527C105.401 34.2565 105.287 33.9261 105.287 33.5615C105.287 33.2425 105.378 32.9463 105.561 32.6729C105.743 32.3994 106.016 32.2399 106.381 32.1943L119.984 30.3145C120.053 30.2917 120.178 30.2803 120.36 30.2803C121.181 30.2803 121.591 30.6449 121.591 31.374V55.1973H132.973C133.428 55.1973 133.77 55.3454 133.998 55.6416C134.226 55.9378 134.34 56.2568 134.34 56.5986C134.34 56.9632 134.215 57.2936 133.964 57.5898C133.736 57.8633 133.394 58 132.938 58H105.731ZM135.085 70.6465C134.606 70.6465 134.242 70.4984 133.991 70.2021C133.763 69.9059 133.649 69.5755 133.649 69.2109C133.649 68.8691 133.763 68.5501 133.991 68.2539C134.219 67.9805 134.561 67.8438 135.017 67.8438H138.093V33.8008L134.401 34.5186C134.287 34.5413 134.174 34.5641 134.06 34.5869C133.946 34.6097 133.832 34.6211 133.718 34.6211C133.308 34.6211 132.977 34.4958 132.727 34.2451C132.499 33.9717 132.385 33.6641 132.385 33.3223C132.385 33.0488 132.465 32.7754 132.624 32.502C132.806 32.2057 133.103 32.012 133.513 31.9209L139.118 30.793C139.437 30.7474 139.642 30.7246 139.733 30.7246C140.576 30.7246 141.021 31.1689 141.066 32.0576L141.169 34.416C142.263 33.2995 143.664 32.3197 145.373 31.4766C147.105 30.6335 149.053 30.2119 151.218 30.2119C153.907 30.2119 156.197 30.8271 158.088 32.0576C160.002 33.2653 161.46 34.9401 162.463 37.082C163.488 39.2012 164.001 41.6393 164.001 44.3965C164.001 47.1081 163.477 49.5348 162.429 51.6768C161.403 53.8187 159.922 55.5049 157.985 56.7354C156.049 57.9658 153.747 58.5811 151.081 58.5811C148.871 58.5811 147.014 58.2507 145.51 57.5898C144.029 56.929 142.65 56.0518 141.374 54.958V67.8438H148.757C149.235 67.8438 149.589 67.9805 149.816 68.2539C150.067 68.5273 150.192 68.835 150.192 69.1768C150.192 69.5413 150.056 69.8717 149.782 70.168C149.532 70.487 149.144 70.6465 148.62 70.6465H135.085ZM150.876 55.7783C153.063 55.7783 154.886 55.2542 156.345 54.2061C157.803 53.1351 158.897 51.7337 159.626 50.002C160.355 48.2702 160.72 46.4017 160.72 44.3965C160.72 42.3457 160.367 40.4658 159.66 38.7568C158.954 37.0251 157.883 35.6351 156.447 34.5869C155.035 33.5387 153.269 33.0146 151.149 33.0146C148.848 33.0146 146.888 33.4932 145.271 34.4502C143.675 35.3844 142.377 36.5579 141.374 37.9707V51.3691C142.445 52.7135 143.755 53.7845 145.305 54.582C146.854 55.3796 148.711 55.7783 150.876 55.7783ZM182.144 58.5811C179.113 58.5811 176.424 58.0114 174.077 56.8721C171.753 55.71 169.93 54.0465 168.608 51.8818C167.31 49.7171 166.66 47.1195 166.66 44.0889C166.66 41.1722 167.344 38.6771 168.711 36.6035C170.101 34.5299 171.935 32.9463 174.214 31.8525C176.515 30.7588 179.033 30.2119 181.768 30.2119C185.299 30.2119 188.228 31.1803 190.552 33.1172C192.899 35.054 194.072 37.891 194.072 41.6279C194.072 42.471 193.833 43.1774 193.354 43.7471C192.876 44.3167 192.238 44.6016 191.44 44.6016H169.941C170.055 48.3158 171.229 51.1071 173.462 52.9756C175.695 54.8441 178.498 55.7783 181.87 55.7783C183.534 55.7783 185.197 55.4707 186.86 54.8555C188.524 54.2402 190.016 53.306 191.338 52.0527C191.816 51.6654 192.284 51.4717 192.739 51.4717C193.149 51.4717 193.48 51.6198 193.73 51.916C193.981 52.2122 194.106 52.5654 194.106 52.9756C194.106 53.4769 193.901 53.9554 193.491 54.4111C192.648 55.3226 191.566 56.0859 190.244 56.7012C188.923 57.3164 187.533 57.7835 186.074 58.1025C184.639 58.4215 183.328 58.5811 182.144 58.5811ZM170.044 42.1064H191.167C191.121 41.2633 190.985 40.3291 190.757 39.3037C190.529 38.2555 190.096 37.2529 189.458 36.2959C188.843 35.3389 187.92 34.5527 186.689 33.9375C185.482 33.3223 183.864 33.0146 181.836 33.0146C178.509 33.0146 175.809 33.8008 173.735 35.373C171.685 36.9453 170.454 39.1898 170.044 42.1064Z" fill="#723F5F"/>
<path d="M207.195 58C206.626 58 206.193 57.8519 205.896 57.5557C205.6 57.2367 205.452 56.8949 205.452 56.5303C205.452 56.1657 205.589 55.8353 205.862 55.5391C206.159 55.2201 206.591 55.0605 207.161 55.0605H212.732V20.915H207.298C206.751 20.915 206.341 20.7669 206.067 20.4707C205.794 20.1745 205.657 19.8441 205.657 19.4795C205.657 19.0921 205.794 18.7503 206.067 18.4541C206.364 18.1351 206.797 17.9756 207.366 17.9756H219.603C223.522 17.9756 226.928 18.682 229.822 20.0947C232.739 21.4847 235.006 23.638 236.624 26.5547C238.242 29.4714 239.051 33.2197 239.051 37.7998C239.051 45.0231 237.342 50.1956 233.924 53.3174C230.506 56.4391 225.709 58 219.534 58H207.195ZM216.014 55.0605H219.773C225.424 55.0605 229.503 53.6136 232.01 50.7197C234.516 47.8258 235.77 43.5192 235.77 37.7998C235.77 32.3994 234.437 28.2409 231.771 25.3242C229.104 22.3848 225.265 20.915 220.252 20.915H216.014V55.0605ZM242.94 58C242.416 58 242.018 57.8519 241.744 57.5557C241.493 57.2594 241.368 56.929 241.368 56.5645C241.368 56.2227 241.482 55.915 241.71 55.6416C241.961 55.3454 242.325 55.1973 242.804 55.1973H249.059V33.7666L244.889 34.6211C244.798 34.6439 244.661 34.6553 244.479 34.6553C244.023 34.6553 243.681 34.5186 243.453 34.2451C243.225 33.9489 243.111 33.6299 243.111 33.2881C243.111 32.5589 243.453 32.126 244.137 31.9893L249.981 30.8271C250.3 30.7588 250.562 30.7246 250.768 30.7246C251.314 30.7246 251.656 30.9069 251.793 31.2715C251.952 31.6133 252.044 32.069 252.066 32.6387L252.203 36.1934C253.411 34.3249 255.108 32.8665 257.296 31.8184C259.483 30.7474 262.252 30.2119 265.602 30.2119C266.741 30.2119 267.527 30.3942 267.96 30.7588C268.393 31.1006 268.609 31.6019 268.609 32.2627V36.9795C268.609 37.6175 268.438 38.096 268.097 38.415C267.755 38.734 267.368 38.8936 266.935 38.8936C266.547 38.8936 266.183 38.7454 265.841 38.4492C265.499 38.153 265.328 37.7087 265.328 37.1162V33.0146C262.411 33.0146 259.745 33.5957 257.33 34.7578C254.938 35.8971 253.274 37.6517 252.34 40.0215V55.1973H263.824C264.28 55.1973 264.622 55.3454 264.85 55.6416C265.077 55.915 265.191 56.234 265.191 56.5986C265.191 56.9404 265.066 57.2594 264.815 57.5557C264.588 57.8519 264.246 58 263.79 58H242.94ZM289.418 23.6152C288.643 23.6152 287.971 23.3418 287.401 22.7949C286.854 22.248 286.581 21.5872 286.581 20.8125C286.581 20.015 286.854 19.3428 287.401 18.7959C287.971 18.249 288.643 17.9756 289.418 17.9756C290.215 17.9756 290.876 18.249 291.4 18.7959C291.947 19.3428 292.221 20.015 292.221 20.8125C292.221 21.5872 291.947 22.248 291.4 22.7949C290.876 23.3418 290.215 23.6152 289.418 23.6152ZM275.849 58C275.325 58 274.926 57.8519 274.652 57.5557C274.402 57.2367 274.276 56.8949 274.276 56.5303C274.276 56.1885 274.39 55.8809 274.618 55.6074C274.869 55.334 275.233 55.1973 275.712 55.1973H288.427V33.4248L277.045 34.9629C276.999 34.9629 276.954 34.9743 276.908 34.9971C276.885 34.9971 276.851 34.9971 276.806 34.9971C276.35 34.9971 275.997 34.849 275.746 34.5527C275.518 34.2565 275.404 33.9261 275.404 33.5615C275.404 33.2425 275.495 32.9463 275.678 32.6729C275.86 32.3994 276.133 32.2399 276.498 32.1943L290.102 30.3145C290.17 30.2917 290.295 30.2803 290.478 30.2803C291.298 30.2803 291.708 30.6449 291.708 31.374V55.1973H303.09C303.546 55.1973 303.887 55.3454 304.115 55.6416C304.343 55.9378 304.457 56.2568 304.457 56.5986C304.457 56.9632 304.332 57.2936 304.081 57.5898C303.853 57.8633 303.511 58 303.056 58H275.849ZM305.202 70.6465C304.724 70.6465 304.359 70.4984 304.108 70.2021C303.881 69.9059 303.767 69.5755 303.767 69.2109C303.767 68.8691 303.881 68.5501 304.108 68.2539C304.336 67.9805 304.678 67.8438 305.134 67.8438H308.21V33.8008L304.519 34.5186C304.405 34.5413 304.291 34.5641 304.177 34.5869C304.063 34.6097 303.949 34.6211 303.835 34.6211C303.425 34.6211 303.094 34.4958 302.844 34.2451C302.616 33.9717 302.502 33.6641 302.502 33.3223C302.502 33.0488 302.582 32.7754 302.741 32.502C302.924 32.2057 303.22 32.012 303.63 31.9209L309.235 30.793C309.554 30.7474 309.759 30.7246 309.851 30.7246C310.694 30.7246 311.138 31.1689 311.184 32.0576L311.286 34.416C312.38 33.2995 313.781 32.3197 315.49 31.4766C317.222 30.6335 319.17 30.2119 321.335 30.2119C324.024 30.2119 326.314 30.8271 328.205 32.0576C330.119 33.2653 331.577 34.9401 332.58 37.082C333.605 39.2012 334.118 41.6393 334.118 44.3965C334.118 47.1081 333.594 49.5348 332.546 51.6768C331.521 53.8187 330.039 55.5049 328.103 56.7354C326.166 57.9658 323.864 58.5811 321.198 58.5811C318.988 58.5811 317.131 58.2507 315.627 57.5898C314.146 56.929 312.767 56.0518 311.491 54.958V67.8438H318.874C319.353 67.8438 319.706 67.9805 319.934 68.2539C320.184 68.5273 320.31 68.835 320.31 69.1768C320.31 69.5413 320.173 69.8717 319.899 70.168C319.649 70.487 319.261 70.6465 318.737 70.6465H305.202ZM320.993 55.7783C323.181 55.7783 325.004 55.2542 326.462 54.2061C327.92 53.1351 329.014 51.7337 329.743 50.002C330.472 48.2702 330.837 46.4017 330.837 44.3965C330.837 42.3457 330.484 40.4658 329.777 38.7568C329.071 37.0251 328 35.6351 326.564 34.5869C325.152 33.5387 323.386 33.0146 321.267 33.0146C318.965 33.0146 317.006 33.4932 315.388 34.4502C313.793 35.3844 312.494 36.5579 311.491 37.9707V51.3691C312.562 52.7135 313.872 53.7845 315.422 54.582C316.971 55.3796 318.828 55.7783 320.993 55.7783Z" fill="#6E6E6E"/>
</svg>
