<svg width="533" height="100" viewBox="0 0 533 100" fill="none" xmlns="http://www.w3.org/2000/svg">
<path d="M0 79.2735V23.1838H7.26496V38.4615L6.51709 35.7906C8.08405 31.5171 10.7194 28.2764 14.4231 26.0684C18.1268 23.7892 22.7208 22.6496 28.2051 22.6496V30.0214C27.9202 30.0214 27.6353 30.0214 27.3504 30.0214C27.0655 29.9501 26.7806 29.9145 26.4957 29.9145C20.584 29.9145 15.9544 31.7308 12.6068 35.3632C9.25926 38.9245 7.58547 44.0171 7.58547 50.641V79.2735H0Z" fill="#723F5F"/>
<path d="M65.3496 79.8077C59.5091 79.8077 54.3809 78.5969 49.9649 76.1752C45.549 73.6823 42.0946 70.2991 39.6017 66.0256C37.1088 61.6809 35.8624 56.7308 35.8624 51.1752C35.8624 45.6197 37.0376 40.7051 39.388 36.4316C41.8097 32.1581 45.086 28.8105 49.2171 26.3889C53.4194 23.896 58.1202 22.6496 63.3196 22.6496C68.5903 22.6496 73.2555 23.8604 77.3154 26.2821C81.4464 28.6325 84.6872 31.9801 87.0376 36.3248C89.388 40.5983 90.5632 45.5484 90.5632 51.1752C90.5632 51.5313 90.5276 51.9231 90.4564 52.3504C90.4564 52.7066 90.4564 53.0983 90.4564 53.5256H41.6316V47.8632H86.3966L83.4051 50.1068C83.4051 46.047 82.5148 42.4501 80.7342 39.3162C79.0248 36.1111 76.6743 33.6182 73.6829 31.8376C70.6914 30.057 67.237 29.1667 63.3196 29.1667C59.4735 29.1667 56.0191 30.057 52.9564 31.8376C49.8937 33.6182 47.5077 36.1111 45.7983 39.3162C44.0889 42.5214 43.2342 46.1895 43.2342 50.3205V51.4957C43.2342 55.7692 44.1601 59.5442 46.012 62.8205C47.935 66.0256 50.5704 68.5541 53.9179 70.406C57.3367 72.1866 61.2185 73.0769 65.5632 73.0769C68.982 73.0769 72.1516 72.4715 75.0718 71.2607C78.0632 70.0499 80.6273 68.198 82.7641 65.7051L87.0376 70.6197C84.5447 73.6111 81.4108 75.8903 77.6359 77.4573C73.9322 79.0242 69.8367 79.8077 65.3496 79.8077Z" fill="#723F5F"/>
<path d="M129.294 79.8077C123.738 79.8077 118.752 78.5969 114.336 76.1752C109.992 73.6823 106.573 70.2991 104.08 66.0256C101.587 61.6809 100.341 56.7308 100.341 51.1752C100.341 45.5484 101.587 40.5983 104.08 36.3248C106.573 32.0513 109.992 28.7037 114.336 26.2821C118.752 23.8604 123.738 22.6496 129.294 22.6496C134.066 22.6496 138.375 23.5755 142.221 25.4274C146.067 27.2792 149.094 30.057 151.302 33.7607L145.64 37.6068C143.717 34.7578 141.331 32.6567 138.482 31.3034C135.633 29.9501 132.534 29.2735 129.187 29.2735C125.198 29.2735 121.601 30.1994 118.396 32.0513C115.191 33.8319 112.662 36.3604 110.811 39.6367C108.959 42.9131 108.033 46.7593 108.033 51.1752C108.033 55.5912 108.959 59.4373 110.811 62.7137C112.662 65.99 115.191 68.5541 118.396 70.406C121.601 72.1866 125.198 73.0769 129.187 73.0769C132.534 73.0769 135.633 72.4003 138.482 71.047C141.331 69.6937 143.717 67.6282 145.64 64.8504L151.302 68.6966C149.094 72.3291 146.067 75.1068 142.221 77.0299C138.375 78.8818 134.066 79.8077 129.294 79.8077Z" fill="#723F5F"/>
<path d="M165.369 79.2735V23.1838H172.954V79.2735H165.369ZM169.215 10.7906C167.648 10.7906 166.33 10.2564 165.262 9.18804C164.194 8.11966 163.659 6.83761 163.659 5.34188C163.659 3.84615 164.194 2.59971 165.262 1.60256C166.33 0.534187 167.648 0 169.215 0C170.782 0 172.1 0.498575 173.168 1.49573C174.236 2.49288 174.77 3.73932 174.77 5.23504C174.77 6.802 174.236 8.11966 173.168 9.18804C172.171 10.2564 170.853 10.7906 169.215 10.7906Z" fill="#723F5F"/>
<path d="M223.013 79.8077C218.17 79.8077 213.79 78.7037 209.872 76.4957C205.955 74.2165 202.821 70.9758 200.471 66.7735C198.192 62.5 197.052 57.3006 197.052 51.1752C197.052 45.0499 198.192 39.886 200.471 35.6838C202.75 31.4103 205.848 28.1695 209.766 25.9615C213.683 23.7536 218.099 22.6496 223.013 22.6496C228.355 22.6496 233.127 23.8604 237.33 26.2821C241.603 28.6325 244.951 31.9801 247.372 36.3248C249.794 40.5983 251.005 45.5484 251.005 51.1752C251.005 56.8732 249.794 61.859 247.372 66.1325C244.951 70.406 241.603 73.7536 237.33 76.1752C233.127 78.5969 228.355 79.8077 223.013 79.8077ZM194.06 100V23.1838H201.325V40.0641L200.578 51.282L201.646 62.6068V100H194.06ZM222.479 73.0769C226.468 73.0769 230.029 72.1866 233.163 70.406C236.297 68.5541 238.79 65.99 240.642 62.7137C242.494 59.3661 243.419 55.5199 243.419 51.1752C243.419 46.8305 242.494 43.0199 240.642 39.7436C238.79 36.4672 236.297 33.9031 233.163 32.0513C230.029 30.1994 226.468 29.2735 222.479 29.2735C218.491 29.2735 214.894 30.1994 211.689 32.0513C208.555 33.9031 206.062 36.4672 204.21 39.7436C202.429 43.0199 201.539 46.8305 201.539 51.1752C201.539 55.5199 202.429 59.3661 204.21 62.7137C206.062 65.99 208.555 68.5541 211.689 70.406C214.894 72.1866 218.491 73.0769 222.479 73.0769Z" fill="#723F5F"/>
<path d="M290.293 79.8077C284.452 79.8077 279.324 78.5969 274.908 76.1752C270.492 73.6823 267.038 70.2991 264.545 66.0256C262.052 61.6809 260.806 56.7308 260.806 51.1752C260.806 45.6197 261.981 40.7051 264.331 36.4316C266.753 32.1581 270.029 28.8105 274.16 26.3889C278.363 23.896 283.063 22.6496 288.263 22.6496C293.534 22.6496 298.199 23.8604 302.259 26.2821C306.39 28.6325 309.63 31.9801 311.981 36.3248C314.331 40.5983 315.506 45.5484 315.506 51.1752C315.506 51.5313 315.471 51.9231 315.4 52.3504C315.4 52.7066 315.4 53.0983 315.4 53.5256H266.575V47.8632H311.34L308.348 50.1068C308.348 46.047 307.458 42.4501 305.677 39.3162C303.968 36.1111 301.618 33.6182 298.626 31.8376C295.635 30.057 292.18 29.1667 288.263 29.1667C284.417 29.1667 280.962 30.057 277.9 31.8376C274.837 33.6182 272.451 36.1111 270.742 39.3162C269.032 42.5214 268.177 46.1895 268.177 50.3205V51.4957C268.177 55.7692 269.103 59.5442 270.955 62.8205C272.878 66.0256 275.514 68.5541 278.861 70.406C282.28 72.1866 286.162 73.0769 290.506 73.0769C293.925 73.0769 297.095 72.4715 300.015 71.2607C303.006 70.0499 305.571 68.198 307.707 65.7051L311.981 70.6197C309.488 73.6111 306.354 75.8903 302.579 77.4573C298.875 79.0242 294.78 79.8077 290.293 79.8077Z" fill="#723F5F"/>
<path d="M354.181 80.2313C348.783 80.2313 343.946 79.0396 339.67 76.6562C335.464 74.2727 332.134 70.9429 329.68 66.6667C327.227 62.3905 326 57.4133 326 51.735C326 46.0568 327.227 41.1146 329.68 36.9085C332.134 32.6323 335.464 29.3025 339.67 26.919C343.946 24.5356 348.783 23.3438 354.181 23.3438C358.878 23.3438 363.119 24.3954 366.904 26.4984C370.69 28.6015 373.704 31.756 375.947 35.9621C378.261 40.1682 379.417 45.4259 379.417 51.735C379.417 58.0442 378.296 63.3018 376.053 67.5079C373.879 71.714 370.9 74.9036 367.115 77.0768C363.329 79.1798 359.018 80.2313 354.181 80.2313ZM355.022 71.3985C358.527 71.3985 361.682 70.5924 364.486 68.98C367.36 67.3677 369.603 65.0894 371.216 62.1451C372.898 59.1307 373.739 55.6607 373.739 51.735C373.739 47.7392 372.898 44.3042 371.216 41.4301C369.603 38.4858 367.36 36.2075 364.486 34.5952C361.682 32.9828 358.527 32.1767 355.022 32.1767C351.447 32.1767 348.257 32.9828 345.453 34.5952C342.649 36.2075 340.406 38.4858 338.723 41.4301C337.041 44.3042 336.2 47.7392 336.2 51.735C336.2 55.6607 337.041 59.1307 338.723 62.1451C340.406 65.0894 342.649 67.3677 345.453 68.98C348.257 70.5924 351.447 71.3985 355.022 71.3985ZM374.055 79.6004V64.5636L374.686 51.6299L373.634 38.6961V1.57729H383.729V79.6004H374.055Z" fill="#6E6E6E"/>
<path d="M402.829 79.6004V23.8696H412.503V39.0116L411.556 35.2261C413.099 31.3705 415.692 28.4262 419.338 26.3933C422.983 24.3603 427.469 23.3438 432.797 23.3438V33.123C432.377 33.0529 431.956 33.0179 431.535 33.0179C431.185 33.0179 430.834 33.0179 430.484 33.0179C425.086 33.0179 420.81 34.6302 417.655 37.8549C414.501 41.0796 412.923 45.7413 412.923 51.8402V79.6004H402.829Z" fill="#6E6E6E"/>
<path d="M445.239 79.6004V23.8696H455.333V79.6004H445.239ZM450.286 13.1441C448.323 13.1441 446.676 12.5131 445.344 11.2513C444.082 9.98948 443.451 8.44725 443.451 6.62461C443.451 4.73186 444.082 3.15458 445.344 1.89275C446.676 0.630915 448.323 0 450.286 0C452.249 0 453.861 0.630915 455.123 1.89275C456.455 3.08447 457.121 4.59166 457.121 6.4143C457.121 8.30705 456.49 9.91938 455.228 11.2513C453.966 12.5131 452.319 13.1441 450.286 13.1441Z" fill="#6E6E6E"/>
<path d="M504.155 80.2313C499.529 80.2313 495.288 79.1798 491.432 77.0768C487.646 74.9036 484.597 71.714 482.284 67.5079C480.04 63.3018 478.919 58.0442 478.919 51.735C478.919 45.4259 480.005 40.1682 482.179 35.9621C484.422 31.756 487.436 28.6015 491.222 26.4984C495.077 24.3954 499.388 23.3438 504.155 23.3438C509.623 23.3438 514.46 24.5356 518.666 26.919C522.873 29.3025 526.202 32.6323 528.656 36.9085C531.109 41.1146 532.336 46.0568 532.336 51.735C532.336 57.4133 531.109 62.3905 528.656 66.6667C526.202 70.9429 522.873 74.2727 518.666 76.6562C514.46 79.0396 509.623 80.2313 504.155 80.2313ZM474.608 100V23.8696H484.282V38.9064L483.651 51.8402L484.702 64.7739V100H474.608ZM503.314 71.3985C506.889 71.3985 510.079 70.5924 512.883 68.98C515.757 67.3677 518 65.0894 519.613 62.1451C521.295 59.1307 522.136 55.6607 522.136 51.735C522.136 47.7392 521.295 44.3042 519.613 41.4301C518 38.4858 515.757 36.2075 512.883 34.5952C510.079 32.9828 506.889 32.1767 503.314 32.1767C499.809 32.1767 496.619 32.9828 493.745 34.5952C490.941 36.2075 488.698 38.4858 487.016 41.4301C485.403 44.3042 484.597 47.7392 484.597 51.735C484.597 55.6607 485.403 59.1307 487.016 62.1451C488.698 65.0894 490.941 67.3677 493.745 68.98C496.619 70.5924 499.809 71.3985 503.314 71.3985Z" fill="#6E6E6E"/>
</svg>
