<svg width="272" height="70" viewBox="0 0 272 70" fill="none" xmlns="http://www.w3.org/2000/svg">
<path d="M21.6562 1.21875H23C28.125 1.21875 32.6875 2.84375 36.625 6.0625C40.5938 9.3125 42.4688 13.5625 42.3125 18.8438C42.3125 24.2812 40.0938 28.9688 35.6875 32.875C33.8125 34.2188 31.5 35.2812 28.7812 36.0312C27.875 36.25 27.3125 36.3438 27.125 36.3438V36.4062C28.0312 38.8438 29.875 41.5 32.6875 44.4375C36.3438 47.8125 40.0312 50.1875 43.7188 51.6562C45.4062 52.25 46.3125 52.5938 46.4062 52.6875C46.4062 54.3438 44.7188 55.9062 41.3125 57.4375C40.1562 57.8125 39.125 58.0312 38.1562 58.0312C36.0938 58.0312 34 57 31.8438 54.9375C29.25 52.3438 27.6875 50.4375 27.125 49.25C25.125 46.3438 23.25 42.5312 21.5625 37.7812C21.5 37.0625 21.2812 36.7188 20.9062 36.7188H20.5312C20.5625 37.4688 20.5938 38.0312 20.5938 38.375V41.9688C20.5938 49.6875 19.6562 54.4688 17.75 56.3125C16.5938 57.3438 15.1875 57.875 13.4688 57.875C11.6875 57.7188 10.7812 57.4688 10.7812 57.125C12.3125 52.9062 13.0938 48.4375 13.0938 43.7812C13.0938 42.1562 12.9375 36.0312 12.6562 25.3125V22.1562C12.6562 17 13.2812 12.875 14.5312 9.84375C15.6562 8.25 17.0312 7.46875 18.6562 7.46875C19.9688 7.46875 21 7.875 21.7188 8.71875C20.7812 12.9375 20.3125 17.875 20.3125 23.5938C20.3125 25.6875 20.3438 28.7188 20.4375 32.6562L20.9688 32.5938H21.5625C24.5312 32.5938 27.3125 31.5 29.9062 29.375C31.75 27.3438 32.8125 25.5938 33.125 24.125C33.4688 23.1875 33.7188 21.75 33.875 19.75C33.875 14.1562 31.6875 9.8125 27.2812 6.78125C25.3438 5.6875 23.3438 5.125 21.3438 5.125H20.9062C20.7812 5.125 20.6875 5.09375 20.5938 5.0625C18.875 5.0625 16.8438 5.625 14.5312 6.78125C11.7812 8.28125 9.78125 10.9375 8.4375 14.8125C8.09375 16.375 7.90625 17.625 7.90625 18.5625V19.9688C7.90625 21.375 8.25 22.5625 8.90625 23.5V23.5938C8.5625 24.0312 7.625 24.25 6.125 24.25C3.8125 24.25 2.15625 23.5312 1.25 22.0938C0.90625 20.875 0.71875 19.625 0.71875 18.4062C0.71875 13.6875 3.15625 9.40625 8 5.5C12.25 2.65625 16.8125 1.21875 21.6562 1.21875ZM54.6562 27.4375H55.7188C58.4062 27.4375 60.2188 28.8125 61.25 31.5938C61.3438 32.2188 61.4062 32.7812 61.4062 33.2812V33.4688C61.4062 37.1562 59.125 40.0938 54.5938 42.2812C53.8438 42.5625 52.6875 42.8438 51.1562 43.0938V43.2812C51.1562 45.9688 52 48.1875 53.7188 49.9688C54.5 50.6562 55.2812 51 56.0625 51H56.6875C59.2188 51.3125 62.0938 48.9062 65.25 43.75C66.125 41.9375 66.75 40.4688 67.125 39.3438C67.4375 39.0938 67.6562 38.9688 67.7188 38.9688C68.4688 39.1562 68.875 39.3438 68.875 39.5312V39.625C67.8125 44.3125 65.3438 48.4062 61.4688 51.8438C59.4688 53.4375 57.1562 54.25 54.5 54.25C50.2188 54.25 47.2812 51.6562 45.6562 46.5312C45.3125 44.8438 45.125 43.2812 45.125 41.8125C45.125 36.5 47 32.1875 50.7188 28.8125C52.25 27.875 53.5625 27.4375 54.6562 27.4375ZM51.1562 40.7812C52.6875 40.625 54.3125 39.9688 56.0625 38.8438C57.4062 37.5 58.0938 36.25 58.0938 35.125V34.8438C58.0938 33.9062 57.5 33.3438 56.3438 33.1875H56.25C53.7812 33.1875 52.1562 35.2188 51.3438 39.3125C51.2812 39.3125 51.2188 39.7812 51.1562 40.7812ZM76.4688 27.5H77C79.75 27.5 81.75 28.9062 82.9688 31.75C83.25 32.4375 83.4062 33.2188 83.4062 34.1562V34.25C83.4062 36.1875 82.5625 37.75 80.875 38.9688L80.3438 39.0625H79.9062C79.1875 39.0625 78.8438 38.7812 78.8438 38.2188V38.125C79.5 37.3438 79.8125 36.5312 79.8125 35.7188V35.1562C79.625 33.875 79 33.2188 77.9688 33.2188C75.5 33.2188 73.875 35.3125 73.0625 39.5312C72.9375 40.8125 72.9062 41.5938 72.9062 41.9375C73 46.5625 74.2188 49.4688 76.4688 50.625C76.9062 50.875 77.375 51 77.875 51H78.5C80.75 51.2812 83.375 49.2812 86.3438 45C87.625 42.6875 88.4375 40.8438 88.8125 39.4375C89.125 39.1875 89.3438 39.0625 89.4062 39.0625C90.1562 39.25 90.5625 39.4375 90.5625 39.625V39.7188C89.5 44.3438 87.0938 48.3438 83.3438 51.75C81.3125 53.4062 78.9688 54.25 76.3125 54.25C72.0312 54.25 69.0938 51.6875 67.4688 46.5625C67.125 44.875 66.9375 43.3125 66.9375 41.8438C66.9375 36.9375 68.5625 32.8125 71.8438 29.5312C73.4375 28.1562 74.9688 27.5 76.4688 27.5ZM91.2188 28.3125C93.5312 28.3125 95 29.1875 95.625 30.9375C96.0312 31.7812 96.2188 32.75 96.2188 33.8438C95.6562 38.9062 95.3438 42.25 95.3438 43.9062C95.3438 48.5625 96.5 50.9062 98.75 50.9062H99.125C101.188 50.9062 103.031 47.875 104.625 41.8125C104.844 40.4688 105.062 39.7812 105.344 39.7812C106.219 39.9375 106.656 40.125 106.656 40.4062C106.656 44.9688 105 48.9375 101.75 52.3125C100.031 53.5938 98.375 54.25 96.8438 54.25H96.125C93.5 54.25 91.375 52.4688 89.75 48.9688C89.0938 47.1562 88.7812 44.4375 88.7812 40.8438C88.7812 38.9062 89.2188 34.9375 90.0938 28.9375C90.3438 28.5312 90.7188 28.3125 91.2188 28.3125ZM94.0625 18.0938C95.5312 18.0938 96.6562 18.9375 97.5 20.5625C97.6875 20.9688 97.7812 21.4688 97.7812 22C97.7812 23.5 96.9375 24.6562 95.25 25.4375C94.9062 25.5938 94.5625 25.6562 94.25 25.6562H93.6562C92.2812 25.6562 91.1875 24.7812 90.3438 23.0625C90.2812 22.6562 90.2188 22.3125 90.2188 22.0938V21.75C90.2188 20.0312 91.25 18.8438 93.2812 18.1875C93.7188 18.125 94 18.0938 94.0625 18.0938ZM105.219 27.1875H105.844C107.375 27.1875 108.469 27.8438 109.094 29.125C109.531 30.0938 109.875 31.5 110.125 33.4062H110.219C112.312 29.5625 114.938 27.625 118.094 27.625C121.656 27.625 124.281 30.125 126 35.0625C126.219 36.125 126.406 37.5 126.5 39.1875C126.5 43.8125 124.906 47.6562 121.688 50.6562C120.094 51.9375 118.531 52.5938 117.062 52.5938H116.781C114.469 52.5938 112.438 51.4375 110.656 49.0938C110.312 55 109.75 59.4688 109 62.5C108 66.4062 107.156 68.3438 106.469 68.3438C106.469 68.6562 105.812 68.875 104.531 69.0625H104.094C102.531 69.0625 101.625 68.7188 101.375 68C103.375 60.3438 104.344 52.25 104.344 43.75C104.344 38.4062 103.656 33.25 102.25 28.25V28.1562C103.125 27.5312 104.125 27.1875 105.219 27.1875ZM111.188 40.5C111.188 43.625 112.219 45.9062 114.25 47.3438C114.719 47.5625 115.094 47.6875 115.375 47.6875H116C117.5 47.6875 118.75 46.375 119.781 43.75C120.125 42.5938 120.281 41.5 120.281 40.4062C120.281 37.25 119.281 34.9688 117.219 33.5938C116.781 33.3438 116.375 33.25 116.094 33.25H115.469C114.125 33.25 112.938 34.4062 111.875 36.75C111.406 38.125 111.188 39.375 111.188 40.5ZM137.844 27.4375H138.906C141.594 27.4375 143.406 28.8125 144.438 31.5938C144.531 32.2188 144.594 32.7812 144.594 33.2812V33.4688C144.594 37.1562 142.312 40.0938 137.781 42.2812C137.031 42.5625 135.875 42.8438 134.344 43.0938V43.2812C134.344 45.9688 135.188 48.1875 136.906 49.9688C137.688 50.6562 138.469 51 139.25 51H139.875C142.406 51.3125 145.281 48.9062 148.438 43.75C149.312 41.9375 149.938 40.4688 150.312 39.3438C150.625 39.0938 150.844 38.9688 150.906 38.9688C151.656 39.1562 152.062 39.3438 152.062 39.5312V39.625C151 44.3125 148.531 48.4062 144.656 51.8438C142.656 53.4375 140.344 54.25 137.688 54.25C133.406 54.25 130.469 51.6562 128.844 46.5312C128.5 44.8438 128.312 43.2812 128.312 41.8125C128.312 36.5 130.188 32.1875 133.906 28.8125C135.438 27.875 136.75 27.4375 137.844 27.4375ZM134.344 40.7812C135.875 40.625 137.5 39.9688 139.25 38.8438C140.594 37.5 141.281 36.25 141.281 35.125V34.8438C141.281 33.9062 140.688 33.3438 139.531 33.1875H139.438C136.969 33.1875 135.344 35.2188 134.531 39.3125C134.469 39.3125 134.406 39.7812 134.344 40.7812ZM183.594 0.96875H184.688C188.406 0.96875 191.938 2 195.219 4.03125C196.219 4.71875 197.344 5.65625 198.594 6.875C200.281 8.71875 201.438 10.1875 202.031 11.2812C202.781 12.5 203.406 13.6875 203.875 14.8438C205.781 19.1875 206.719 23.75 206.719 28.5C206.719 33.375 205.469 38.2188 202.969 43.0938C202.031 44.875 200.75 46.7812 199.094 48.7812C197.719 50.2812 196.625 51.375 195.875 52C194.25 53.3438 192.625 54.4375 190.969 55.25C187.312 56.9688 183.438 57.8125 179.375 57.8125C174.188 57.8125 170.438 56.4375 168.125 53.7188C167.75 53.0625 167.562 52.3438 167.562 51.5312C167.562 49.625 168.125 47.5938 169.188 45.4375C169.344 45.25 169.406 45.1875 169.438 45.1875H169.469C169.531 45.1875 169.625 45.5312 169.781 46.2188C170.656 48.6875 172.469 50.6562 175.156 52.1562C176.969 53.0312 178.688 53.4688 180.312 53.4688H180.969C183.594 53.4688 186.281 52.4688 189.062 50.4688C189.781 49.875 190.438 49.2812 191 48.6875C193.156 46.3125 194.781 43.5 195.906 40.2188C197.094 36.5625 197.688 32.7188 197.688 28.6562V28.5625C197.688 23 196.531 17.9375 194.25 13.4062C191.188 7.84375 187.062 5.0625 181.875 5.0625C176.188 5.0625 172.406 7.78125 170.562 13.25C170 15.1562 169.688 17 169.688 18.8125V18.9062C169.688 20.7812 170.031 22.1562 170.688 23V23.0625C170.688 23.375 169.938 23.5938 168.406 23.6875H167.812C165.875 23.6875 164.438 23.1562 163.469 22.0625C162.938 21.25 162.688 19.9688 162.688 18.2188V17.9375C162.688 13.8438 164.562 10.0312 168.281 6.5C170.656 4.46875 173.281 3 176.188 2.125C178.812 1.375 181.281 0.96875 183.594 0.96875ZM179.844 7.4375C181.031 7.4375 182.031 7.84375 182.812 8.59375C182.844 8.71875 182.875 8.78125 182.875 8.8125C181.969 12.625 181.5 17.375 181.5 23.0625V25.0938C181.5 26.4375 181.562 29.25 181.656 33.5312C181.656 38.2188 181.094 41.3125 179.969 42.8125C178.781 44.6562 176.812 45.5938 174.094 45.5938H173.469C172.875 45.5938 172.562 45.5 172.562 45.375C173.594 41.6875 174.125 37.5938 174.125 33.125C173.969 27.1875 173.875 23.7188 173.875 22.7812C173.875 17.4062 174.469 13.1562 175.656 10.0312C176.781 8.3125 178.188 7.4375 179.844 7.4375ZM211.406 27.1875H211.594C213.812 27.1875 215.312 28.0312 216.062 29.75C216.406 30.7812 216.594 31.75 216.594 32.625C215.812 38.0625 215.438 41.4688 215.438 42.875V43.6562H215.531C217.406 32.8125 220.656 27.375 225.25 27.375H225.344C228.125 27.375 230.031 28.875 231.031 31.8438C231.281 32.8438 231.562 34.875 231.906 37.875C231.906 38.3125 231.094 38.5625 229.469 38.6562C227.594 38.6562 226.281 37.9375 225.5 36.4688C224.844 34.1875 224.344 33.0625 224.031 33.0625L223.5 32.9688C221.062 32.9688 219.156 36.75 217.812 44.2812C217.469 46.7188 217.219 49.4375 217.094 52.4062C216.594 52.7188 215.875 52.8438 214.906 52.8438H214.562C212.156 52.8438 210.469 50.9688 209.5 47.1562C209.094 45.625 208.875 43.5938 208.875 41.125C208.875 38.4062 209.469 33.9375 210.625 27.7188C210.875 27.375 211.156 27.1875 211.406 27.1875ZM236.594 28.3125C238.906 28.3125 240.375 29.1875 241 30.9375C241.406 31.7812 241.594 32.75 241.594 33.8438C241.031 38.9062 240.719 42.25 240.719 43.9062C240.719 48.5625 241.875 50.9062 244.125 50.9062H244.5C246.562 50.9062 248.406 47.875 250 41.8125C250.219 40.4688 250.438 39.7812 250.719 39.7812C251.594 39.9375 252.031 40.125 252.031 40.4062C252.031 44.9688 250.375 48.9375 247.125 52.3125C245.406 53.5938 243.75 54.25 242.219 54.25H241.5C238.875 54.25 236.75 52.4688 235.125 48.9688C234.469 47.1562 234.156 44.4375 234.156 40.8438C234.156 38.9062 234.594 34.9375 235.469 28.9375C235.719 28.5312 236.094 28.3125 236.594 28.3125ZM239.438 18.0938C240.906 18.0938 242.031 18.9375 242.875 20.5625C243.062 20.9688 243.156 21.4688 243.156 22C243.156 23.5 242.312 24.6562 240.625 25.4375C240.281 25.5938 239.938 25.6562 239.625 25.6562H239.031C237.656 25.6562 236.562 24.7812 235.719 23.0625C235.656 22.6562 235.594 22.3125 235.594 22.0938V21.75C235.594 20.0312 236.625 18.8438 238.656 18.1875C239.094 18.125 239.375 18.0938 239.438 18.0938ZM250.594 27.1875H251.219C252.75 27.1875 253.844 27.8438 254.469 29.125C254.906 30.0938 255.25 31.5 255.5 33.4062H255.594C257.688 29.5625 260.312 27.625 263.469 27.625C267.031 27.625 269.656 30.125 271.375 35.0625C271.594 36.125 271.781 37.5 271.875 39.1875C271.875 43.8125 270.281 47.6562 267.062 50.6562C265.469 51.9375 263.906 52.5938 262.438 52.5938H262.156C259.844 52.5938 257.812 51.4375 256.031 49.0938C255.688 55 255.125 59.4688 254.375 62.5C253.375 66.4062 252.531 68.3438 251.844 68.3438C251.844 68.6562 251.188 68.875 249.906 69.0625H249.469C247.906 69.0625 247 68.7188 246.75 68C248.75 60.3438 249.719 52.25 249.719 43.75C249.719 38.4062 249.031 33.25 247.625 28.25V28.1562C248.5 27.5312 249.5 27.1875 250.594 27.1875ZM256.562 40.5C256.562 43.625 257.594 45.9062 259.625 47.3438C260.094 47.5625 260.469 47.6875 260.75 47.6875H261.375C262.875 47.6875 264.125 46.375 265.156 43.75C265.5 42.5938 265.656 41.5 265.656 40.4062C265.656 37.25 264.656 34.9688 262.594 33.5938C262.156 33.3438 261.75 33.25 261.469 33.25H260.844C259.5 33.25 258.312 34.4062 257.25 36.75C256.781 38.125 256.562 39.375 256.562 40.5Z" fill="#723F5F"/>
</svg>
