<svg width="294" height="76" viewBox="0 0 294 76" fill="none" xmlns="http://www.w3.org/2000/svg">
<path d="M187.494 57.5889C185.614 57.5889 183.893 57.3569 182.331 56.8931C180.768 56.4292 179.425 55.7578 178.302 54.8789C177.204 54 176.337 52.9258 175.702 51.6562C175.092 50.3867 174.787 48.9463 174.787 47.335C174.787 45.6748 175.165 43.9902 175.922 42.2812C176.703 40.5479 177.826 38.9487 179.291 37.4839L179.987 38.1797C179.23 39.1562 178.595 40.3281 178.083 41.6953C177.594 43.0625 177.35 44.5151 177.35 46.0532C177.35 47.2983 177.533 48.5312 177.899 49.752C178.29 50.9482 178.888 52.0225 179.694 52.9746C180.5 53.9268 181.537 54.6958 182.807 55.2817C184.101 55.8677 185.663 56.1606 187.494 56.1606C187.641 56.1606 187.787 56.1484 187.934 56.124C188.08 56.0996 188.227 56.0874 188.373 56.0874C187.616 53.7925 186.933 50.9849 186.322 47.6646C185.736 44.3442 185.443 40.4868 185.443 36.0923C185.443 31.9907 185.688 28.3774 186.176 25.2524C186.664 22.1274 187.238 19.4297 187.897 17.1592C188.556 14.8887 189.228 13.021 189.911 11.5562C190.619 10.0669 191.181 8.91943 191.596 8.11377L192.658 8.3335C192.438 9.3833 192.157 10.8237 191.815 12.6548C191.474 14.4614 191.132 16.6953 190.79 19.3564C190.473 21.9932 190.192 25.0815 189.948 28.6216C189.704 32.1616 189.582 36.1655 189.582 40.6333C189.582 43.1479 189.655 45.687 189.801 48.2505C189.948 50.7896 190.167 53.353 190.46 55.9409C193.415 55.6235 196.173 54.8789 198.737 53.707C201.3 52.5352 203.632 51.0581 205.731 49.2759C207.855 47.4937 209.735 45.4673 211.371 43.1968C213.007 40.9263 214.386 38.5337 215.509 36.019C216.657 33.5044 217.523 30.9287 218.109 28.292C218.695 25.6553 218.988 23.0796 218.988 20.5649C218.988 17.2446 218.476 14.4004 217.45 12.0322C216.425 9.66406 215.094 7.73535 213.458 6.24609C211.823 4.73242 209.967 3.63379 207.892 2.9502C205.841 2.24219 203.791 1.88818 201.74 1.88818C199.713 1.88818 197.833 2.02246 196.1 2.29102C194.367 2.55957 192.768 2.91357 191.303 3.35303C189.862 3.79248 188.544 4.29297 187.348 4.85449C186.176 5.3916 185.126 5.95312 184.198 6.53906C182.001 7.90625 180.194 9.45654 178.778 11.1899L177.57 10.3477C177.594 10.2988 177.814 10.0181 178.229 9.50537C178.668 8.99268 179.315 8.37012 180.17 7.6377C181.024 6.90527 182.099 6.12402 183.393 5.29395C184.711 4.46387 186.249 3.69482 188.007 2.98682C189.789 2.25439 191.815 1.65625 194.086 1.19238C196.381 0.704102 198.932 0.459961 201.74 0.459961C205.109 0.459961 208.124 0.899414 210.785 1.77832C213.446 2.65723 215.692 3.96338 217.523 5.69678C219.379 7.40576 220.795 9.52979 221.771 12.0688C222.748 14.5835 223.236 17.4888 223.236 20.7847C223.236 24.6421 222.736 28.1943 221.735 31.4414C220.734 34.6641 219.391 37.5938 217.707 40.2305C216.022 42.8428 214.081 45.1499 211.884 47.1519C209.687 49.1538 207.379 50.875 204.962 52.3154C202.545 53.7314 200.104 54.8545 197.638 55.6846C195.172 56.5391 192.841 57.1006 190.644 57.3691C190.717 57.833 190.79 58.2725 190.863 58.6875C190.937 59.1025 191.01 59.542 191.083 60.0059L189.875 60.1523C189.728 59.7617 189.557 59.3467 189.362 58.9072C189.191 58.4678 189.008 58.0039 188.812 57.5156C188.593 57.5645 188.373 57.5889 188.153 57.5889C187.934 57.5889 187.714 57.5889 187.494 57.5889Z" fill="#6E6E6E"/>
<path d="M231.073 34.5176C230.829 35.3721 230.585 36.1045 230.341 36.7148C230.097 37.3252 229.828 37.8989 229.535 38.436C229.242 38.9487 228.913 39.4492 228.546 39.9375C228.205 40.4014 227.814 40.9141 227.375 41.4756L227.082 41.1826C227.643 39.7422 228.131 38.3872 228.546 37.1177C228.986 35.8481 229.376 34.5786 229.718 33.3091C229.328 32.7476 228.986 32.0518 228.693 31.2217C228.424 30.3672 228.29 29.354 228.29 28.1821C228.29 27.1323 228.449 26.2656 228.766 25.582C229.108 24.874 229.547 24.52 230.084 24.52C230.377 24.52 230.646 24.6543 230.89 24.9229C231.159 25.1914 231.378 25.5454 231.549 25.9849C231.72 26.4243 231.854 26.937 231.952 27.5229C232.05 28.0845 232.099 28.6826 232.099 29.3174C232.099 29.6104 232.074 29.9277 232.025 30.2695C232.001 30.6113 231.964 30.9653 231.916 31.3315C231.867 31.6733 231.806 32.0151 231.732 32.3569C231.659 32.6743 231.586 32.9429 231.513 33.1626C231.659 33.2847 231.891 33.3945 232.208 33.4922C232.55 33.5654 232.99 33.6021 233.527 33.6021C234.455 33.6021 235.272 33.4678 235.98 33.1992C236.688 32.9307 237.25 32.5889 237.665 32.1738C238.031 31.5879 238.312 31.1362 238.507 30.8188C238.727 30.5015 238.898 30.2695 239.02 30.123C239.142 29.9521 239.228 29.8545 239.276 29.8301C239.35 29.7812 239.435 29.7568 239.533 29.7568C239.801 29.7568 240.021 29.8301 240.192 29.9766C240.363 30.123 240.448 30.3306 240.448 30.5991C240.448 30.6724 240.412 30.77 240.338 30.8921C240.265 31.0142 240.167 31.1729 240.045 31.3682C239.02 32.8574 238.214 34.4932 237.628 36.2754C237.042 38.0576 236.75 40.0352 236.75 42.208C236.75 44.7227 237.152 46.5415 237.958 47.6646C238.788 48.7876 239.96 49.3491 241.474 49.3491C242.304 49.3491 243.097 49.105 243.854 48.6167C244.611 48.104 245.355 47.3228 246.088 46.2729C246.82 45.1987 247.553 43.8315 248.285 42.1714C249.042 40.4868 249.848 38.4604 250.702 36.0923L252.13 36.4585C251.081 39.5591 250.092 42.1104 249.164 44.1123C248.236 46.0898 247.321 47.6646 246.417 48.8364C245.514 49.9839 244.586 50.7896 243.634 51.2534C242.682 51.6929 241.645 51.9126 240.521 51.9126C239.813 51.9126 239.081 51.7539 238.324 51.4365C237.567 51.1191 236.872 50.6187 236.237 49.9351C235.626 49.2515 235.126 48.3726 234.735 47.2983C234.345 46.1997 234.149 44.8813 234.149 43.3433C234.149 42.5864 234.21 41.8052 234.333 40.9995C234.479 40.1694 234.662 39.376 234.882 38.6191C235.102 37.8379 235.346 37.0933 235.614 36.3853C235.883 35.6528 236.164 34.9937 236.457 34.4077C235.578 34.8228 234.625 35.0303 233.6 35.0303C232.599 35.0303 231.757 34.8594 231.073 34.5176Z" fill="#6E6E6E"/>
<path d="M254.914 50.1914C253.375 50.1914 252.094 49.5688 251.068 48.3237C250.067 47.0786 249.567 45.1987 249.567 42.6841C249.567 41.0239 249.896 38.9121 250.556 36.3486C251.239 33.7607 252.411 30.8433 254.071 27.5962L255.426 27.9624C255.28 28.5972 255.036 29.4639 254.694 30.5625C254.376 31.6611 254.047 32.894 253.705 34.2612C253.388 35.604 253.107 37.02 252.863 38.5093C252.619 39.9741 252.497 41.3901 252.497 42.7573C252.497 43.9048 252.582 44.8447 252.753 45.5771C252.924 46.2852 253.144 46.8467 253.412 47.2617C253.705 47.6523 254.035 47.9209 254.401 48.0674C254.792 48.2139 255.207 48.2871 255.646 48.2871C256.354 48.2871 257.025 48.0674 257.66 47.6279C258.295 47.1885 258.893 46.6147 259.455 45.9067C260.041 45.1743 260.578 44.3687 261.066 43.4897C261.579 42.5864 262.03 41.6831 262.421 40.7798C262.836 39.8765 263.202 39.022 263.52 38.2163C263.837 37.3862 264.093 36.6782 264.289 36.0923L265.717 36.4585C265.448 37.1909 265.131 38.0454 264.765 39.022C264.423 39.9741 264.02 40.9629 263.556 41.9883C263.117 43.0137 262.616 44.0146 262.055 44.9912C261.493 45.9678 260.858 46.8467 260.15 47.6279C259.442 48.3848 258.649 49.0073 257.77 49.4956C256.916 49.9595 255.963 50.1914 254.914 50.1914ZM260.846 16.0605C260.846 16.915 260.517 17.5742 259.857 18.0381C259.198 18.502 258.368 18.7339 257.367 18.7339C256.854 18.7339 256.366 18.6606 255.902 18.5142C255.463 18.3433 255.072 18.1357 254.73 17.8916C254.413 17.623 254.157 17.3179 253.961 16.9761C253.791 16.6099 253.705 16.2314 253.705 15.8408C253.705 15.0107 254.022 14.3394 254.657 13.8267C255.316 13.314 256.073 13.0576 256.928 13.0576C257.538 13.0576 258.087 13.1553 258.576 13.3506C259.064 13.5215 259.479 13.7534 259.821 14.0464C260.163 14.3394 260.419 14.6689 260.59 15.0352C260.761 15.377 260.846 15.7188 260.846 16.0605ZM258.869 16.0605C258.869 15.8164 258.759 15.5967 258.539 15.4014C258.344 15.1816 258.039 15.0718 257.624 15.0718C256.867 15.0718 256.488 15.3525 256.488 15.9141C256.488 16.1826 256.598 16.4146 256.818 16.6099C257.062 16.7808 257.379 16.8662 257.77 16.8662C258.136 16.8662 258.405 16.793 258.576 16.6465C258.771 16.4756 258.869 16.2803 258.869 16.0605Z" fill="#6E6E6E"/>
<path d="M282.416 49.0562C283.222 49.0562 283.979 48.8364 284.687 48.397C285.419 47.9331 286.103 47.335 286.737 46.6025C287.396 45.8457 288.007 45.0034 288.568 44.0757C289.154 43.1235 289.679 42.1714 290.143 41.2192C290.631 40.2427 291.059 39.3149 291.425 38.436C291.815 37.5327 292.157 36.7515 292.45 36.0923L293.878 36.4585C293.561 37.2642 293.195 38.1675 292.78 39.1685C292.389 40.1694 291.925 41.1948 291.388 42.2446C290.875 43.2944 290.302 44.3198 289.667 45.3208C289.057 46.2974 288.373 47.1763 287.616 47.9575C286.859 48.7388 286.042 49.3735 285.163 49.8618C284.284 50.3257 283.344 50.5576 282.343 50.5576C281.366 50.5576 280.39 50.3501 279.413 49.9351C278.583 50.5698 277.667 51.0703 276.667 51.4365C275.666 51.8027 274.555 51.9858 273.334 51.9858C272.577 51.9858 271.967 51.8882 271.503 51.6929C271.039 51.4976 270.673 51.2656 270.404 50.9971C270.16 50.7041 269.989 50.4111 269.892 50.1182C269.794 49.8252 269.745 49.5688 269.745 49.3491C269.745 48.8608 269.855 48.4336 270.075 48.0674C270.294 47.6768 270.587 47.3472 270.954 47.0786C271.32 46.8101 271.735 46.6147 272.199 46.4927C272.687 46.3462 273.188 46.2729 273.7 46.2729C274.53 46.2729 275.324 46.4316 276.081 46.749C276.837 47.042 277.57 47.3594 278.278 47.7012C278.839 46.9932 279.34 46.1997 279.779 45.3208C280.219 44.4419 280.585 43.5386 280.878 42.6108C281.171 41.6587 281.391 40.7188 281.537 39.791C281.708 38.8633 281.793 37.9966 281.793 37.1909C281.793 35.311 281.476 33.9561 280.841 33.126C280.231 32.2959 279.499 31.8809 278.644 31.8809C277.692 31.8809 276.764 32.1738 275.861 32.7598C274.982 33.3457 274.079 34.2612 273.151 35.5063C272.248 36.7515 271.308 38.3384 270.331 40.2671C269.379 42.1714 268.354 44.4541 267.255 47.1152C267.133 47.335 267.035 47.5669 266.962 47.811C266.889 48.0552 266.791 48.2871 266.669 48.5068C266.889 51.3877 267.108 54.1465 267.328 56.7832C267.572 59.4443 267.694 61.8125 267.694 63.8877C267.694 67.8184 267.243 70.7236 266.339 72.6035C265.436 74.5078 264.044 75.46 262.165 75.46C261.432 75.46 260.797 75.2891 260.26 74.9473C259.723 74.6055 259.284 74.1416 258.942 73.5557C258.576 72.9697 258.307 72.2739 258.136 71.4683C257.965 70.687 257.88 69.8447 257.88 68.9414C257.88 67.5254 258.063 65.9629 258.429 64.2539C258.771 62.5449 259.235 60.7627 259.821 58.9072C260.407 57.0762 261.09 55.1841 261.872 53.231C262.653 51.2778 263.471 49.3369 264.325 47.4082C264.105 44.9668 263.91 42.5742 263.739 40.2305C263.593 37.8623 263.52 35.5796 263.52 33.3823C263.52 31.478 263.654 29.9888 263.922 28.9146C264.191 27.8403 264.606 27.3032 265.167 27.3032C265.338 27.3032 265.558 27.3521 265.827 27.4497C266.12 27.5474 266.388 27.7061 266.632 27.9258C266.876 28.1211 267.084 28.3652 267.255 28.6582C267.45 28.9512 267.548 29.293 267.548 29.6836C267.548 30.6846 267.414 31.71 267.145 32.7598C266.876 33.8096 266.51 34.8594 266.046 35.9092C266.046 37.0566 266.059 38.2285 266.083 39.4248C266.132 40.6211 266.193 41.8296 266.266 43.0503C267.34 40.8042 268.39 38.8877 269.416 37.3008C270.441 35.6895 271.466 34.3833 272.492 33.3823C273.517 32.3569 274.53 31.6123 275.531 31.1484C276.557 30.6846 277.594 30.4526 278.644 30.4526C279.547 30.4526 280.365 30.6479 281.098 31.0386C281.83 31.4292 282.453 31.9663 282.965 32.6499C283.478 33.3091 283.869 34.1025 284.137 35.0303C284.43 35.958 284.577 36.959 284.577 38.0332C284.577 40.0107 284.259 41.9517 283.625 43.856C282.99 45.7603 282.038 47.396 280.768 48.7632C281.232 48.9585 281.781 49.0562 282.416 49.0562ZM265.607 66.4512C265.607 64.3027 265.534 62.0811 265.387 59.7861C265.241 57.5156 265.07 55.2329 264.875 52.938C263.434 56.4292 262.25 59.5786 261.322 62.3862C260.419 65.1938 259.967 67.7451 259.967 70.04C259.967 71.1387 260.175 72.0786 260.59 72.8599C261.005 73.6411 261.627 74.0317 262.458 74.0317C262.897 74.0317 263.3 73.9097 263.666 73.6655C264.057 73.4214 264.386 73.0063 264.655 72.4204C264.948 71.8345 265.18 71.0532 265.351 70.0767C265.521 69.1001 265.607 67.8916 265.607 66.4512ZM273.188 50.5576C273.944 50.5576 274.652 50.4111 275.312 50.1182C275.971 49.8252 276.581 49.4224 277.143 48.9097C276.483 48.5923 275.861 48.3115 275.275 48.0674C274.713 47.8232 274.164 47.7012 273.627 47.7012C272.699 47.7012 272.052 47.8843 271.686 48.2505C271.344 48.5923 271.173 48.9341 271.173 49.2759C271.173 49.5444 271.332 49.8252 271.649 50.1182C271.967 50.4111 272.479 50.5576 273.188 50.5576Z" fill="#6E6E6E"/>
<path d="M1.76367 54C1.31445 54 0.972656 53.873 0.738281 53.6191C0.523438 53.3652 0.416016 53.082 0.416016 52.7695C0.416016 52.4766 0.513672 52.2129 0.708984 51.9785C0.923828 51.7246 1.23633 51.5977 1.64648 51.5977H7.00781V33.2285L3.43359 33.9609C3.35547 33.9805 3.23828 33.9902 3.08203 33.9902C2.69141 33.9902 2.39844 33.873 2.20312 33.6387C2.00781 33.3848 1.91016 33.1113 1.91016 32.8184C1.91016 32.1934 2.20312 31.8223 2.78906 31.7051L7.79883 30.709C8.07227 30.6504 8.29688 30.6211 8.47266 30.6211C8.94141 30.6211 9.23438 30.7773 9.35156 31.0898C9.48828 31.3828 9.56641 31.7734 9.58594 32.2617L9.70312 35.3086C10.7383 33.707 12.1934 32.457 14.0684 31.5586C15.9434 30.6406 18.3164 30.1816 21.1875 30.1816C22.1641 30.1816 22.8379 30.3379 23.209 30.6504C23.5801 30.9434 23.7656 31.373 23.7656 31.9395V35.9824C23.7656 36.5293 23.6191 36.9395 23.3262 37.2129C23.0332 37.4863 22.7012 37.623 22.3301 37.623C21.998 37.623 21.6855 37.4961 21.3926 37.2422C21.0996 36.9883 20.9531 36.6074 20.9531 36.0996V32.584C18.4531 32.584 16.168 33.082 14.0977 34.0781C12.0469 35.0547 10.6211 36.5586 9.82031 38.5898V51.5977H19.6641C20.0547 51.5977 20.3477 51.7246 20.543 51.9785C20.7383 52.2129 20.8359 52.4863 20.8359 52.7988C20.8359 53.0918 20.7285 53.3652 20.5137 53.6191C20.3184 53.873 20.0254 54 19.6348 54H1.76367Z" fill="#723F5F"/>
<path d="M40.8105 54.498C38.2129 54.498 35.9082 54.0098 33.8965 53.0332C31.9043 52.0371 30.3418 50.6113 29.209 48.7559C28.0957 46.9004 27.5391 44.6738 27.5391 42.0762C27.5391 39.5762 28.125 37.4375 29.2969 35.6602C30.4883 33.8828 32.0605 32.5254 34.0137 31.5879C35.9863 30.6504 38.1445 30.1816 40.4883 30.1816C43.5156 30.1816 46.0254 31.0117 48.0176 32.6719C50.0293 34.332 51.0352 36.7637 51.0352 39.9668C51.0352 40.6895 50.8301 41.2949 50.4199 41.7832C50.0098 42.2715 49.4629 42.5156 48.7793 42.5156H30.3516C30.4492 45.6992 31.4551 48.0918 33.3691 49.6934C35.2832 51.2949 37.6855 52.0957 40.5762 52.0957C42.002 52.0957 43.4277 51.832 44.8535 51.3047C46.2793 50.7773 47.5586 49.9766 48.6914 48.9023C49.1016 48.5703 49.502 48.4043 49.8926 48.4043C50.2441 48.4043 50.5273 48.5312 50.7422 48.7852C50.957 49.0391 51.0645 49.3418 51.0645 49.6934C51.0645 50.123 50.8887 50.5332 50.5371 50.9238C49.8145 51.7051 48.8867 52.3594 47.7539 52.8867C46.6211 53.4141 45.4297 53.8145 44.1797 54.0879C42.9492 54.3613 41.8262 54.498 40.8105 54.498ZM30.4395 40.377H48.5449C48.5059 39.6543 48.3887 38.8535 48.1934 37.9746C47.998 37.0762 47.627 36.2168 47.0801 35.3965C46.5527 34.5762 45.7617 33.9023 44.707 33.375C43.6719 32.8477 42.2852 32.584 40.5469 32.584C37.6953 32.584 35.3809 33.2578 33.6035 34.6055C31.8457 35.9531 30.791 37.877 30.4395 40.377Z" fill="#723F5F"/>
<path d="M67.1719 54.498C63.2656 54.498 60.0918 53.4043 57.6504 51.2168C55.2285 49.0098 54.0176 45.9629 54.0176 42.0762C54.0176 39.5762 54.6133 37.4375 55.8047 35.6602C57.0156 33.8828 58.6172 32.5254 60.6094 31.5879C62.6211 30.6504 64.8379 30.1816 67.2598 30.1816C70.1699 30.1816 72.5723 30.7383 74.4668 31.8516C76.3809 32.9648 77.3379 34.8398 77.3379 37.4766C77.3379 38.1406 77.1914 38.6973 76.8984 39.1465C76.625 39.5957 76.1855 39.8203 75.5801 39.8203C74.877 39.8203 74.4277 39.2832 74.2324 38.209C74.0566 37.1152 73.8613 35.6797 73.6465 33.9023C72.6113 33.3945 71.6055 33.0527 70.6289 32.877C69.6523 32.6816 68.6758 32.584 67.6992 32.584C64.2812 32.584 61.6152 33.4238 59.7012 35.1035C57.7871 36.7832 56.8301 39.1074 56.8301 42.0762C56.8301 45.4746 57.7676 47.9941 59.6426 49.6348C61.5371 51.2754 63.9688 52.0957 66.9375 52.0957C68.793 52.0957 70.3262 51.8418 71.5371 51.334C72.748 50.8262 73.9297 50.0352 75.082 48.9609C75.4141 48.6484 75.8145 48.4922 76.2832 48.4922C76.9668 48.4922 77.3086 48.8926 77.3086 49.6934C77.3086 50.123 77.1328 50.5332 76.7812 50.9238C76.0586 51.7051 75.1309 52.3594 73.998 52.8867C72.8848 53.4141 71.7227 53.8145 70.5117 54.0879C69.3008 54.3613 68.1875 54.498 67.1719 54.498Z" fill="#723F5F"/>
<path d="M96.2578 24.5273C95.5938 24.5273 95.0176 24.293 94.5293 23.8242C94.0605 23.3555 93.8262 22.7891 93.8262 22.125C93.8262 21.4414 94.0605 20.8652 94.5293 20.3965C95.0176 19.9277 95.5938 19.6934 96.2578 19.6934C96.9414 19.6934 97.5078 19.9277 97.957 20.3965C98.4258 20.8652 98.6602 21.4414 98.6602 22.125C98.6602 22.7891 98.4258 23.3555 97.957 23.8242C97.5078 24.293 96.9414 24.5273 96.2578 24.5273ZM84.627 54C84.1777 54 83.8359 53.873 83.6016 53.6191C83.3867 53.3457 83.2793 53.0527 83.2793 52.7402C83.2793 52.4473 83.377 52.1836 83.5723 51.9492C83.7871 51.7148 84.0996 51.5977 84.5098 51.5977H95.4082V32.9355L85.6523 34.2539C85.6133 34.2539 85.5742 34.2637 85.5352 34.2832C85.5156 34.2832 85.4863 34.2832 85.4473 34.2832C85.0566 34.2832 84.7539 34.1562 84.5391 33.9023C84.3438 33.6484 84.2461 33.3652 84.2461 33.0527C84.2461 32.7793 84.3242 32.5254 84.4805 32.291C84.6367 32.0566 84.8711 31.9199 85.1836 31.8809L96.8438 30.2695C96.9023 30.25 97.0098 30.2402 97.166 30.2402C97.8691 30.2402 98.2207 30.5527 98.2207 31.1777V51.5977H107.977C108.367 51.5977 108.66 51.7246 108.855 51.9785C109.051 52.2324 109.148 52.5059 109.148 52.7988C109.148 53.1113 109.041 53.3945 108.826 53.6484C108.631 53.8828 108.338 54 107.947 54H84.627Z" fill="#723F5F"/>
<path d="M109.787 64.8398C109.377 64.8398 109.064 64.7129 108.85 64.459C108.654 64.2051 108.557 63.9219 108.557 63.6094C108.557 63.3164 108.654 63.043 108.85 62.7891C109.045 62.5547 109.338 62.4375 109.729 62.4375H112.365V33.2578L109.201 33.873C109.104 33.8926 109.006 33.9121 108.908 33.9316C108.811 33.9512 108.713 33.9609 108.615 33.9609C108.264 33.9609 107.98 33.8535 107.766 33.6387C107.57 33.4043 107.473 33.1406 107.473 32.8477C107.473 32.6133 107.541 32.3789 107.678 32.1445C107.834 31.8906 108.088 31.7246 108.439 31.6465L113.244 30.6797C113.518 30.6406 113.693 30.6211 113.771 30.6211C114.494 30.6211 114.875 31.002 114.914 31.7637L115.002 33.7852C115.939 32.8281 117.141 31.9883 118.605 31.2656C120.09 30.543 121.76 30.1816 123.615 30.1816C125.92 30.1816 127.883 30.709 129.504 31.7637C131.145 32.7988 132.395 34.2344 133.254 36.0703C134.133 37.8867 134.572 39.9766 134.572 42.3398C134.572 44.6641 134.123 46.7441 133.225 48.5801C132.346 50.416 131.076 51.8613 129.416 52.916C127.756 53.9707 125.783 54.498 123.498 54.498C121.604 54.498 120.012 54.2148 118.723 53.6484C117.453 53.082 116.271 52.3301 115.178 51.3926V62.4375H121.506C121.916 62.4375 122.219 62.5547 122.414 62.7891C122.629 63.0234 122.736 63.2871 122.736 63.5801C122.736 63.8926 122.619 64.1758 122.385 64.4297C122.17 64.7031 121.838 64.8398 121.389 64.8398H109.787ZM123.322 52.0957C125.197 52.0957 126.76 51.6465 128.01 50.748C129.26 49.8301 130.197 48.6289 130.822 47.1445C131.447 45.6602 131.76 44.0586 131.76 42.3398C131.76 40.582 131.457 38.9707 130.852 37.5059C130.246 36.0215 129.328 34.8301 128.098 33.9316C126.887 33.0332 125.373 32.584 123.557 32.584C121.584 32.584 119.904 32.9941 118.518 33.8145C117.15 34.6152 116.037 35.6211 115.178 36.832V48.3164C116.096 49.4688 117.219 50.3867 118.547 51.0703C119.875 51.7539 121.467 52.0957 123.322 52.0957Z" fill="#723F5F"/>
<path d="M150.123 54.498C147.525 54.498 145.221 54.0098 143.209 53.0332C141.217 52.0371 139.654 50.6113 138.521 48.7559C137.408 46.9004 136.852 44.6738 136.852 42.0762C136.852 39.5762 137.438 37.4375 138.609 35.6602C139.801 33.8828 141.373 32.5254 143.326 31.5879C145.299 30.6504 147.457 30.1816 149.801 30.1816C152.828 30.1816 155.338 31.0117 157.33 32.6719C159.342 34.332 160.348 36.7637 160.348 39.9668C160.348 40.6895 160.143 41.2949 159.732 41.7832C159.322 42.2715 158.775 42.5156 158.092 42.5156H139.664C139.762 45.6992 140.768 48.0918 142.682 49.6934C144.596 51.2949 146.998 52.0957 149.889 52.0957C151.314 52.0957 152.74 51.832 154.166 51.3047C155.592 50.7773 156.871 49.9766 158.004 48.9023C158.414 48.5703 158.814 48.4043 159.205 48.4043C159.557 48.4043 159.84 48.5312 160.055 48.7852C160.27 49.0391 160.377 49.3418 160.377 49.6934C160.377 50.123 160.201 50.5332 159.85 50.9238C159.127 51.7051 158.199 52.3594 157.066 52.8867C155.934 53.4141 154.742 53.8145 153.492 54.0879C152.262 54.3613 151.139 54.498 150.123 54.498ZM139.752 40.377H157.857C157.818 39.6543 157.701 38.8535 157.506 37.9746C157.311 37.0762 156.939 36.2168 156.393 35.3965C155.865 34.5762 155.074 33.9023 154.02 33.375C152.984 32.8477 151.598 32.584 149.859 32.584C147.008 32.584 144.693 33.2578 142.916 34.6055C141.158 35.9531 140.104 37.877 139.752 40.377Z" fill="#723F5F"/>
</svg>
